<svg id="OBJECTS" xmlns="http://www.w3.org/2000/svg" viewBox="0 0 475.83 402.76"><defs><style>.cls-1,.cls-6{fill:#231f20;}.cls-2{fill:#fff;}.cls-3{fill:#d3dee3;}.cls-4{fill:#ee2f5d;}.cls-5{fill:none;}.cls-5,.cls-6{stroke:#231f20;stroke-miterlimit:10;}</style></defs><path class="cls-1" d="M486.37,214.36a19.32,19.32,0,0,0-6.41-2.92,8.91,8.91,0,0,0-3.88-.09c-1.85.41-3.08,1.07-3.57,3l-.48,1.75a19.58,19.58,0,0,0-.71,3.55,5.41,5.41,0,0,0,.41,2.84c.35.71,1.42,2,2.32,2,2.67,1,6.18.65,9,.5,2.35-.12,6.16,0,8.2-1.3C495.09,221.1,488.44,215.76,486.37,214.36Z" transform="translate(-253.59 -38)"/><path class="cls-1" d="M487.75,223.57c-3.85.56-8.34,1-12.21.29-5.67-1.06-2.5-6.84-1.89-10.4l0,0c3.14-2.93,8.54-.62,11.64,1.32a18.25,18.25,0,0,1,4.16,3.52,7.24,7.24,0,0,1,1.63,2.2C491.87,223.3,489.22,223.36,487.75,223.57Z" transform="translate(-253.59 -38)"/><path class="cls-1" d="M454.68,213.13l-.05,0a2.29,2.29,0,0,0-1.79-.57c-.68-.05-1.36-.08-2-.08A27.44,27.44,0,0,0,439,215.11c-.56.28-1.12.57-1.66.88-2.16,1.24-10.28,6.95-3.93,8.16a51.1,51.1,0,0,0,10.56.51,47.06,47.06,0,0,0,10.12-1c2.06-.52,3.78-1.74,4-4a5.76,5.76,0,0,0-1-3.66,12.54,12.54,0,0,0-1.22-1.58C455.45,214,455.08,213.56,454.68,213.13Z" transform="translate(-253.59 -38)"/><path class="cls-1" d="M456.22,221.65c-1.7,1.69-5.23,1.64-7.43,1.84a73,73,0,0,1-14.1-.09c-1.71.21-2.37-.73-2-2.82.34-.34.69-.66,1-1a25.55,25.55,0,0,1,2.76-2.08,26.44,26.44,0,0,1,5.68-2.77,25.06,25.06,0,0,1,5.68-1.18c1-.09,2-.14,2.93-.14.41,0,.81,0,1.22,0a4,4,0,0,1,1.42.07,2,2,0,0,1,.91.76c.3.37.67.69,1,1.06a10.59,10.59,0,0,1,1.36,2A3.53,3.53,0,0,1,456.22,221.65Z" transform="translate(-253.59 -38)"/><path class="cls-1" d="M485.48,213l-18.27-83.62a.47.47,0,0,0-.1-.38.45.45,0,0,0-.69-.14,103.15,103.15,0,0,0-30.64,4.3.37.37,0,0,0-.23.17c-.25,0-.51.1-.48.42q3.18,40.38,6.35,80.78a.39.39,0,0,0,.29.56,37.53,37.53,0,0,0,14.48.17.41.41,0,0,0,.28-.61.35.35,0,0,0,.11-.29q-1.45-27.6-2.9-55.18c.1.32.21.65.32,1q1.22,3.75,2.44,7.52l4.87,15q2.44,7.51,4.88,15c1,3.14,2.11,6.25,3.13,9.39.51,1.57,1,3.15,1.45,4.73.35,1.22.35,2.83,1.37,3.78,1.21,1.14,3.31.53,4.79.42a22,22,0,0,0,8.26-2.32.38.38,0,0,0,.23-.41A.42.42,0,0,0,485.48,213Z" transform="translate(-253.59 -38)"/><path class="cls-2" d="M473.56,215.15c-.9-.08-.87-.2-1.13-1-3.12-9.93-6.39-19.82-9.6-29.72l-9.75-30c-.19-.6-.39-1.2-.58-1.8s-1.07-.33-.89.23.46,1.06.62,1.61a23.56,23.56,0,0,1,.58,5.74c.06,1.22.13,2.43.19,3.65q.19,3.63.38,7.28.39,7.29.77,14.57t.77,14.57q.36,7.06.74,14.14a.14.14,0,0,0,0,.07s-3,.41-3.28.43c-1.11.1-2.23.14-3.35.13s-2.33-.09-3.49-.21l-1.77-.24c-.42-.06-1.28,0-1.52-.38s0-1-.07-1.35c0-.59-.09-1.19-.14-1.78-.09-1.19-.18-2.38-.28-3.58-.19-2.38-.37-4.76-.56-7.14q-.56-7.16-1.12-14.3T439,171.71q-.56-7.16-1.12-14.3t-1.12-14.3L436,134a102.13,102.13,0,0,1,30.34-4.28q9.11,41.66,18.2,83.29a20.72,20.72,0,0,1-7.14,2.06A21.53,21.53,0,0,1,473.56,215.15Z" transform="translate(-253.59 -38)"/><path class="cls-1" d="M439.32,81.71c-.83-.66-1.48-.17-2.37.18s-1.68.68-2.51,1c-1.66.72-3.29,1.51-4.89,2.34A73,73,0,0,0,420.37,91c-.73.53-1.45,1.08-2.16,1.64a72.15,72.15,0,0,0-8.53,8c-1.77,1.94-3.84,4.27-3.9,7a5.38,5.38,0,0,0,3.94,5.12c3.1,1.07,6.3-.15,9.11-1.47a112.15,112.15,0,0,0,11.42-6.17c3.25-2,6.74-4.06,9.47-6.75a11.35,11.35,0,0,0,1.54-14.5,11.94,11.94,0,0,0-1.84-2Z" transform="translate(-253.59 -38)"/><path class="cls-2" d="M434.49,101.26a115.08,115.08,0,0,1-10.37,6.31c-3.65,2-8.31,5.07-12.63,4.61-2.82-.3-5.28-2.36-4.7-5.37a10.81,10.81,0,0,1,2.77-4.72,67.35,67.35,0,0,1,8-7.76,73,73,0,0,1,21-12.1.36.36,0,0,0,.11.14,10.38,10.38,0,0,1,3.38,10.44C441.06,96.67,437.64,99.11,434.49,101.26Z" transform="translate(-253.59 -38)"/><path class="cls-1" d="M471.67,87.32a17.22,17.22,0,0,0-.45-1.71,7.29,7.29,0,0,0-.62-1.77,2.55,2.55,0,0,0-1.26-1c-.54-.21-1-.52-1.56-.77-.73-.35-1.46-.67-2.2-1A37.94,37.94,0,0,0,461,79.63a37.13,37.13,0,0,0-9.5-1.23q-.82,0-1.65,0c-5.61.27-12.48,1.55-15.68,6.63-1.58,2.49-2.09,5.46-2.46,8.32a93.33,93.33,0,0,0-.75,11.93,88,88,0,0,0,.87,11.91c.45,3.26,1.33,6.63,1.71,10,.4,3.53,0,7-.11,10.58a.47.47,0,0,0,.69.4l6-2.45c2.89-1.19,5.37-2.63,8.06-.17,1.95,1.78,3.47,4.46,6.46,4.47,3.21,0,6.43-2.73,9.07-4.24a28.34,28.34,0,0,0,3.93-2.18c1.33-1.08,1.41-2.84,1.3-4.4-.13-1.8-.28-3.51-.27-5.33q0-3.24.08-6.49.12-3,.38-6c.17-2,.65-4,.67-6,.45-3,1.19-6,1.68-9A25.73,25.73,0,0,0,471.67,87.32Z" transform="translate(-253.59 -38)"/><path class="cls-2" d="M470.42,96.61c-.66,3.61-1.39,7.19-1.86,10.83-.5,3.9-.81,7.83-.93,11.76q-.09,3,0,6.08c0,1.07,0,2.15.08,3.21.17,1.54.8,2.93-.45,4.19a16.22,16.22,0,0,1-3.61,2.1L459,137.4c-2.17,1.24-4.4,2.48-6.81.92-1.35-.87-2.24-2.32-3.41-3.39a5.28,5.28,0,0,0-5.58-1.46c-3,1-5.93,2.39-8.84,3.63.06-2.13.11-4.26.17-6.38.08-3.31-.76-6.52-1.31-9.75a95.76,95.76,0,0,1-1.2-10.54c-.05-.85-.09-1.7-.11-2.55-.18-6.39-.3-13.83,1.88-19.93,2.44-6.83,10.26-8.47,16.82-8.64a36.66,36.66,0,0,1,19,4.82C471.56,88.1,471.19,92.4,470.42,96.61Z" transform="translate(-253.59 -38)"/><path class="cls-3" d="M463.62,134.78a16.22,16.22,0,0,0,3.61-2.1c1.25-1.26.62-2.65.45-4.19-.11-1.06-.06-2.14-.08-3.21q-.06-3,0-6.08c.12-3.93.43-7.86.93-11.76.47-3.64,1.2-7.22,1.86-10.83.77-4.21,1.14-8.51-.75-12.48-.58-.33-1.18-.64-1.78-.94a112.85,112.85,0,0,1-6.65,34.17c-2.35,6.44-5.69,13-11.64,16.88a10,10,0,0,1-.94.55l.16.14c1.17,1.07,2.06,2.52,3.41,3.39,2.41,1.56,4.64.32,6.81-.92Z" transform="translate(-253.59 -38)"/><path class="cls-1" d="M449.55,82.9a3.57,3.57,0,0,0-3.63,3,.42.42,0,0,0-.11.39c.24,1,.37,2.68,1.12,3.64.05.06-1.52,2.24-1.66,2.48a29.51,29.51,0,0,0-1.47,2.78,28.37,28.37,0,0,0-1.25,3.6,20.18,20.18,0,0,0-.95,3.9,16.26,16.26,0,0,0,.5,4,2.56,2.56,0,0,0,.75,1.82c1.36,1,2.37-.75,3-1.66a20.69,20.69,0,0,0,3.61-7.37c.62-3-.25-6.06,0-9.1a6.18,6.18,0,0,0,2.69-3.95A2.9,2.9,0,0,0,449.55,82.9Z" transform="translate(-253.59 -38)"/><path class="cls-4" d="M447.38,102.56c-.63,1.28-1.6,3.55-2.75,4.44-1.74,1.33-1.66-.83-1.79-2a10.87,10.87,0,0,1-.06-4,33,33,0,0,1,1.1-3.63,28.69,28.69,0,0,1,3.76-6.87,1.84,1.84,0,0,0,.69.15h.21C448.19,94.82,449.38,98.52,447.38,102.56Z" transform="translate(-253.59 -38)"/><path class="cls-4" d="M451,87c-.41,1-2.29,4.14-3.63,1.87a9.25,9.25,0,0,1-.64-2.61.43.43,0,0,0,.05-.12,2.73,2.73,0,0,1,2.38-2.37C451,83.72,451.64,85.54,451,87Z" transform="translate(-253.59 -38)"/><path class="cls-1" d="M453.12,77.37c-9.05-.9-14,8.29-12.82,16a.47.47,0,0,0,.77.21l7.86-7q2,3.27,4,6.54a.47.47,0,0,0,.72.1c2.87-2.47,7-5.88,6.87-10C460.4,79.64,456.23,77.68,453.12,77.37Z" transform="translate(-253.59 -38)"/><path class="cls-2" d="M453.42,92.2l-2.17-3.57c-.42-.68-1.1-3.2-2.19-3.07a1.13,1.13,0,0,0-.45.2,29.81,29.81,0,0,0-3.51,3L443,90.64c-.26.23-2,1.46-1.94,1.74-.65-6.56,3.18-13.95,10.64-14.15,3.69-.1,9,2.21,7.57,6.68C458.37,87.91,455.77,90.18,453.42,92.2Z" transform="translate(-253.59 -38)"/><path class="cls-1" d="M447.69,77c-.92-.69-2.94.75-3.68,1.22a13.11,13.11,0,0,0-2.86,2.55,27.16,27.16,0,0,0-3.93,6.48c-.86,1.87-2.08,4-1.43,6.1.54,1.75,2.15,2.93,3.63,3.92a3.48,3.48,0,0,0-1.21,3.3,12.37,12.37,0,0,0,1.59,3.7c.56,1.06,1.16,2.09,1.79,3.11a9,9,0,0,0,1.55,2.47s0-.07,0-.1c.52.32,1-.19,1-.7a38,38,0,0,0-.57-5.31,54.85,54.85,0,0,1-.16-6.15,57.55,57.55,0,0,1,2.93-16.54q.51-1.53,1.11-3C447.58,77.8,448,77.29,447.69,77Z" transform="translate(-253.59 -38)"/><path class="cls-2" d="M440.6,103.87c-.62-1.17-1.59-2.59-1.54-4,.07-2,1.93-2.78,3.5-3.29a57.81,57.81,0,0,0,.61,11.29l0,.33C442.27,106.82,441.4,105.36,440.6,103.87Z" transform="translate(-253.59 -38)"/><path class="cls-2" d="M442.61,95.66a11.74,11.74,0,0,0-2.42,1.08l-.05,0c-2-1.36-3.92-2.77-3.46-5.5A20.21,20.21,0,0,1,439,85.66c1.68-3.25,3.93-6.2,7.46-7.54A57.91,57.91,0,0,0,442.61,95.66Z" transform="translate(-253.59 -38)"/><path class="cls-1" d="M433.48,102.14a39.16,39.16,0,0,0-7-1.85.39.39,0,0,0-.6-.17l-.07.06q-1.31-.2-2.64-.3a.47.47,0,0,0-.42,0,36.64,36.64,0,0,0-6.7.18c-4.33.53-9.49,2.09-10.72,6.79-1.1,4.16,2.44,7.13,6.27,7.83,5.7,1,12.16-.12,17.68-1.6a.44.44,0,0,0,.31-.54,22.13,22.13,0,0,0,4.54-9.85A.49.49,0,0,0,433.48,102.14Z" transform="translate(-253.59 -38)"/><path class="cls-2" d="M415.42,114c-2.41,0-5-.18-7-1.61A5.06,5.06,0,0,1,407,105.3c2.52-4,8.51-4.55,12.84-4.63q.94,0,1.89,0a9.27,9.27,0,0,0-.52,13A47,47,0,0,1,415.42,114Z" transform="translate(-253.59 -38)"/><path class="cls-2" d="M422.36,113.54a8.42,8.42,0,0,1,.72-12.77c.62,0,1.23.11,1.85.18a9.4,9.4,0,0,0-1.46,12.43Z" transform="translate(-253.59 -38)"/><path class="cls-1" d="M428.81,112.1a.89.89,0,0,0-.09.16c-1.4.37-2.83.69-4.26.95a8.57,8.57,0,0,1,1.65-12.08,37.9,37.9,0,0,1,7.06,1.87A21.2,21.2,0,0,1,428.81,112.1Z" transform="translate(-253.59 -38)"/><path class="cls-1" d="M441.75,110.36a5.55,5.55,0,0,0-.62-5.7c-2.15-3-8.77-3.8-9.89-3.48a9.41,9.41,0,0,0-6.19,8.4c0,1.45.49,3.2,2,3.76a2.3,2.3,0,0,0,1.61,0,2.43,2.43,0,0,0,4.4,1,2.34,2.34,0,0,0,3.42-.52c.27,1.32,2.11,1.35,3.19.78a4.43,4.43,0,0,0,2.32-3.82A.4.4,0,0,0,441.75,110.36Z" transform="translate(-253.59 -38)"/><path class="cls-2" d="M434.85,108.54a7,7,0,0,1,1.33,3.06,2.79,2.79,0,0,1-.29,1.5c-.34.59-1.6,1.39-2.19.55a.44.44,0,0,0-.23-.18,6.69,6.69,0,0,0-.42-3.59c-.18-.55-1.07-.32-.89.24a4.93,4.93,0,0,1,.38,3.24,1.52,1.52,0,0,1-3-.41.32.32,0,0,0,0-.14,3.13,3.13,0,0,0,.58-1c.2-.56-.69-.8-.88-.26-2.1,2.16-3.36,0-3.27-1.68a7.33,7.33,0,0,1,.18-1.75,8,8,0,0,1,1-2.52,8.69,8.69,0,0,1,4.9-3.79c.17,0,4.89.38,6.75,1.77,2.34,1.76,3.89,5.65,1,7.64.42-1.72-.57-3.33-1.49-4.7-.32-.48-1.12,0-.8.45a8.56,8.56,0,0,1,1.35,2.57c.33,1.25-.12,2.85-1.65,2.93a.5.5,0,0,0-.13,0c.27-1.53-.6-3.14-1.41-4.44C435.34,107.6,434.54,108,434.85,108.54Z" transform="translate(-253.59 -38)"/><path class="cls-2" d="M440.17,113.1a3.45,3.45,0,0,1-.92.7c-.55.28-1.87.56-1.85-.42a2.73,2.73,0,0,0,2.07-1.36.42.42,0,0,0,.59.14,4.88,4.88,0,0,0,1-.8A3.47,3.47,0,0,1,440.17,113.1Z" transform="translate(-253.59 -38)"/><path class="cls-1" d="M432.25,99.28c-.49-.79-1.49-.68-2.32-.83a18.45,18.45,0,0,0-2.87-.26,8.58,8.58,0,0,0-3.35.17c-1.51.62-2,3.87-.27,4.4a12.82,12.82,0,0,0,7.18.33,2.33,2.33,0,0,0,1.57-1.65,3.07,3.07,0,0,0,.13-2S432.27,99.32,432.25,99.28Z" transform="translate(-253.59 -38)"/><path class="cls-2" d="M430.9,99.58a14,14,0,0,1-3.11.52c-.83,0-3.39.23-3.83-.77A17.63,17.63,0,0,1,430.9,99.58Z" transform="translate(-253.59 -38)"/><path class="cls-2" d="M430.49,102.17a.41.41,0,0,0-.25,0,11.88,11.88,0,0,1-6.76-.33,2.92,2.92,0,0,1,0-1.63,3.74,3.74,0,0,0,2.27.74,14.56,14.56,0,0,0,5.61-.54,5.34,5.34,0,0,1-.3,1.47A2.17,2.17,0,0,1,430.49,102.17Z" transform="translate(-253.59 -38)"/><path class="cls-1" d="M474,147.51a6.16,6.16,0,0,0-3.44-.66c-1.89,0-3.78.05-5.67.07l-.14,0c-2.44-.11-5.19-.17-7.16,1.51a5.68,5.68,0,0,0-1.81,3.78c-.1,1.87,1.55,2.86,3.34,2.1,1.16-.49.24-1.7.9-2.49a4.08,4.08,0,0,1,2.16-1.08,29.75,29.75,0,0,1,4.8-.53,10.47,10.47,0,0,1,4.49.36,2.37,2.37,0,0,1,1.47,1.28c.28.72-.49,1.78.06,2.41a1.2,1.2,0,0,0,1.05.23l.89-.14a1.18,1.18,0,0,0,.53-.21c.36-.32.18-1.06.19-1.47,0-.71.09-1.4,0-2.11A4,4,0,0,0,474,147.51Z" transform="translate(-253.59 -38)"/><path class="cls-1" d="M467,149.33c-2.28.18-9.38.14-8.19,4.08l-1.85,0a4.14,4.14,0,0,1,2.06-4.77c1.76-.93,3.8-.83,5.73-.74l.15,0c1.89,0,3.77-.08,5.66-.08,1.15,0,2.43-.07,3.36.86,1.26,1.26.93,3.27.7,4.81v.05l-.75.07C474.9,149.68,469.77,149.1,467,149.33Z" transform="translate(-253.59 -38)"/><path class="cls-1" d="M489.76,180.64q-.35-8.64-.7-17.27c-.17-4.09-.37-8.12-5.18-9.09-5.26-1.06-11.15-.75-16.5-.77q-6.45,0-12.89.3c-1.63.08-5.19.26-5.41.32-4.46,1.21-3.8,6.16-3.51,9.69q.36,4.59.7,9.19c.12,1.55.24,3.11.37,4.66s.12,3,.24,4.56c.18,2.16,2.22,2.58,4.07,2.79a100.21,100.21,0,0,0,11.63.37,187.8,187.8,0,0,0,23.46-1.5,4.35,4.35,0,0,0,3.82-2.83A.37.37,0,0,0,489.76,180.64Z" transform="translate(-253.59 -38)"/><path class="cls-2" d="M486,183.09c-1.86.51-3.85.35-5.75.54-4.69.45-9.41.73-14.12.82q-6.28.13-12.58.11a12.49,12.49,0,0,1-4-.52,3.33,3.33,0,0,1-2-2.72c-.39-1.91,0-3.85-.16-5.77-.2-2.45-.39-4.89-.59-7.34-.27-3.47-2.26-11.32,1.89-13.19a.34.34,0,0,0,.2,0,240.1,240.1,0,0,1,31.05-.24c3,.17,6.32.21,7.63,3.41.86,2.12.54,5.1.63,7.34q.31,7.68.62,15.36l0,.1c.19.69-1.61,1.62-2.06,1.8A6.41,6.41,0,0,1,486,183.09Z" transform="translate(-253.59 -38)"/><path class="cls-1" d="M460,63.42c-3.59-1.28-6.53,4.88-2.92,6.52a3.75,3.75,0,0,0,4.78-1.9A3.34,3.34,0,0,0,460,63.42Z" transform="translate(-253.59 -38)"/><path class="cls-2" d="M461.19,67a2.89,2.89,0,0,1-2.86,2.29A2.26,2.26,0,0,1,456.44,68c-.7-1.65,1.11-4.13,3-3.71A2.37,2.37,0,0,1,461.19,67Z" transform="translate(-253.59 -38)"/><path class="cls-1" d="M435.19,63c-3.77-.62-5.52,6-1.67,6.93a3.73,3.73,0,0,0,4.35-2.72A3.35,3.35,0,0,0,435.19,63Z" transform="translate(-253.59 -38)"/><path class="cls-2" d="M437,66.27A2.86,2.86,0,0,1,434.64,69a2.26,2.26,0,0,1-2.11-1c-1-1.5.32-4.26,2.24-4.19A2.39,2.39,0,0,1,437,66.27Z" transform="translate(-253.59 -38)"/><path class="cls-1" d="M457.12,68.68a.37.37,0,0,0-.05-.11c2.66-6,4.06-12.78,1.57-19-2.06-5.18-6.61-9.3-12.42-9.59-15.19-.77-14.93,20.61-10.91,30.13,1.69,4,6.28,8.15,10.57,7.17.89,2.42-.41,5.32,1.13,7.53s4.23,1.84,6.24.86,5.1-3,5.62-5.39c.31-1.45-.2-3.1-.46-4.5Z" transform="translate(-253.59 -38)"/><path class="cls-2" d="M456.71,82.09a16.38,16.38,0,0,1-3.29,2.41c-1.46.82-3.19,1.39-4.72.46s-1.54-2.26-1.54-3.77.18-3.26-.45-4.52c-.37-.76-1.09-.38-1.74-.32a6.59,6.59,0,0,1-2.34-.21,8.6,8.6,0,0,1-4.2-2.65c-2.29-2.57-3.3-6.13-3.93-9.42-1.26-6.51-1.35-16.79,4.64-21.23,5.82-4.31,13.79-1.29,17.3,4.35,4.1,6.59,2.73,14.58-.32,21.28a.47.47,0,0,0,.13.56c.51,2.76,1,5.51,1.52,8.26C458.08,79.12,458.13,80.68,456.71,82.09Z" transform="translate(-253.59 -38)"/><path class="cls-3" d="M456.44,47.19c-3.51-5.64-11.48-8.66-17.3-4.35-5.26,3.89-5.83,12.3-5,18.7A41,41,0,0,0,450,52.9a13.46,13.46,0,0,0,7.67,11.68C459.49,58.82,459.77,52.55,456.44,47.19Z" transform="translate(-253.59 -38)"/><path class="cls-3" d="M450.41,75.13c-1.3.4-2.6.83-3.91,1.26a.89.89,0,0,1,.21.28c.63,1.26.45,3.15.45,4.52a4.47,4.47,0,0,0,.94,3.31,9.53,9.53,0,0,0,2.5-3c.73-1.2,3.15-5,1.76-6.34C451.81,74.67,451.05,74.94,450.41,75.13Z" transform="translate(-253.59 -38)"/><path class="cls-1" d="M438.08,63.74c-.21-.66-.65-1.23-1.19-1.22-1,0-.79,1.9-.54,2.43a1.12,1.12,0,0,0,1.36.65C438.37,65.29,438.26,64.3,438.08,63.74Z" transform="translate(-253.59 -38)"/><path class="cls-1" d="M447.15,63.39c-.21-.66-.65-1.23-1.18-1.22-1,0-.79,1.9-.55,2.43a1.11,1.11,0,0,0,1.36.65C447.44,64.94,447.33,64,447.15,63.39Z" transform="translate(-253.59 -38)"/><path class="cls-1" d="M441.6,67.06c-.8-.17-1-1.49-1.08-2.14a8.53,8.53,0,0,1-.07-2.42c.06-.58-.86-.59-.92,0-.14,1.5-.16,5,1.82,5.44C441.92,68.06,442.18,67.19,441.6,67.06Z" transform="translate(-253.59 -38)"/><path class="cls-1" d="M447.58,66.88a6.33,6.33,0,0,1-3.66,1.77c-.59.08-.35,1,.23.88a7.18,7.18,0,0,0,4.07-2A.46.46,0,0,0,447.58,66.88Z" transform="translate(-253.59 -38)"/><path class="cls-1" d="M461.83,52.34c-.24-2.65-1.14-8.23-5-7.85-4.11.42-5,6.55-4.74,9.66a13.64,13.64,0,0,0,1.89,6,14.79,14.79,0,0,0,1.92,2.53c.54.58,1.17,1.05,1.73,1.61.25.25.86.95,1.19.41A20,20,0,0,0,461.83,52.34Z" transform="translate(-253.59 -38)"/><path class="cls-1" d="M458.39,63.65a13.42,13.42,0,0,1-5.05-7.59c-.65-2.77-.23-12.05,4.54-10.23,3,1.15,3.22,6.4,3.09,9.17A19,19,0,0,1,458.39,63.65Z" transform="translate(-253.59 -38)"/><path class="cls-1" d="M449.43,38.32c-6.26-1.45-13.5,2.14-16.87,7.33a14.84,14.84,0,0,0-2.31,9.46c.18,1.78.63,5.45,3.17,5.24,1.47-.13,3.2-1.13,4.54-1.72a60.83,60.83,0,0,0,5.61-2.77,66.5,66.5,0,0,0,9.75-6.64.35.35,0,0,0,.13-.4C457.86,45.52,454.12,39.41,449.43,38.32Z" transform="translate(-253.59 -38)"/><path class="cls-1" d="M439.64,56.87c-1.37.66-2.77,1.27-4.19,1.82a3.12,3.12,0,0,1-2.35.37c-1.18-.34-1.22-.79-1.55-2a13.34,13.34,0,0,1,.29-7.86A15.69,15.69,0,0,1,443,39.44c2.81-.7,6.13-.83,8.66.76,3,1.87,4.08,6.35.55,8.33a.42.42,0,0,0-.19.54A64.85,64.85,0,0,1,439.64,56.87Z" transform="translate(-253.59 -38)"/><path class="cls-1" d="M478.12,94.65c-.66-3.79-2.26-7.49-5.45-9.86a8,8,0,0,0-2.78-1.47,4.24,4.24,0,0,0-2.64.63c-3.71,2.74-4.12,7.88-4.56,12.15a67.81,67.81,0,0,0-.23,10.85c.2,3.36.85,6.67,1.13,10a73.3,73.3,0,0,1,0,9.83q-.18,3.42-.59,6.82c-.14,1.17-.3,2.33-.48,3.49-.1.64-.08,1.31-.17,1.95s-1.16,2.15,0,2.3c-.07.31-.24.6-.29.93a4.64,4.64,0,0,0-4.44,3.36,2.57,2.57,0,0,0,.28,2.38,2.22,2.22,0,0,0,1.86.59c-.51,1.33-.87,2.93.32,4a1.93,1.93,0,0,0,2.48.11,2,2,0,0,0,1.94,1.42,2.59,2.59,0,0,0,2.32-1.46,2,2,0,0,0,1.75,1,2.44,2.44,0,0,0,2-1.2c.88.92,2.27.18,2.92-.8a11.12,11.12,0,0,0,1.32-7.43l0,0a1.68,1.68,0,0,0,.29-1.3l.54-.13a.38.38,0,0,0,.22-.6q1.26-17.91,2.51-35.8A48,48,0,0,0,478.12,94.65Z" transform="translate(-253.59 -38)"/><path class="cls-2" d="M473.81,148.26a9.44,9.44,0,0,1-.67,2.09c-.19.41-1.27,2.67-2.09,1.24l-.05-.07c0-.14.07-.29.1-.44a.46.46,0,0,0-.91-.15,2.07,2.07,0,0,1-1.29,1.8,1,1,0,0,1-1.4-1.15c.08-.34-.23-.53-.51-.49a.46.46,0,0,0-.71.29,2.15,2.15,0,0,1-1.28,1.8c-.81.28-1.94-.27-1.62-1.25a.5.5,0,0,0-.48-.64.39.39,0,0,0-.59.2c-.4,1.14-1.64.85-2-.1a3.78,3.78,0,0,1,.45-2.81.4.4,0,0,0-.08-.46.43.43,0,0,0-.49-.45,4.34,4.34,0,0,1-.63.06,1.37,1.37,0,0,1-1.18-1.2,3.08,3.08,0,0,1,.65-1.77,3.82,3.82,0,0,1,3.17-1.57c.77,1.49,4.06,2,5.5,2.09,1.28.1,4.52.42,6.27-.41A11,11,0,0,1,473.81,148.26Z" transform="translate(-253.59 -38)"/><path class="cls-2" d="M468.22,144.41c-.93-.06-6.4-.42-5.05-2.6a18.23,18.23,0,0,0,11,1.31C474.26,144.78,468.76,144.44,468.22,144.41Z" transform="translate(-253.59 -38)"/><path class="cls-2" d="M477.57,105.08c-.13,1.87-.31,3.73-.44,5.6q-1.1,15.67-2.2,31.35a17.2,17.2,0,0,1-12.12-1.41,36.72,36.72,0,0,1,.67-4c.21-1.45.4-2.9.55-4.35.31-2.85.49-5.71.56-8.58a100.15,100.15,0,0,0-.26-10.25c-.2-2.51-.68-5-.94-7.48a43.52,43.52,0,0,1,0-7.31c.3-4.72.39-11.68,5-14.42l0,0a2.61,2.61,0,0,1,1-.07,4.6,4.6,0,0,1,2,.93,16.3,16.3,0,0,1,1.78,1.31,12.06,12.06,0,0,1,2.32,3,19.06,19.06,0,0,1,2.07,7.49A51,51,0,0,1,477.57,105.08Z" transform="translate(-253.59 -38)"/><path class="cls-1" d="M462.9,82.34a6.77,6.77,0,0,0-.74-2.72,4.19,4.19,0,0,0-.84-1.08c-.2-.19-1.12-.64-1.12-.88a1.15,1.15,0,0,0-1.27.13,2.34,2.34,0,0,0-.52.82,28.72,28.72,0,0,1-1.81,3.07q-1.38,2.23-2.67,4.51c-1.74,3-3.38,6.12-4.93,9.24-1.65,3.34-3.19,6.74-4.63,10.17-.5,1.21-1,2.43-1.4,3.67-.1.31.12.4.3.59s.68-.14.79-.19a3.65,3.65,0,0,0,.62-.4c.45-.35.83-.75,1.29-1.08l3.65-2.63c1.26-.92,2.75-1.83,3.4-3.3a3.18,3.18,0,0,0-.13-3c2-1.17,4.53-.66,6.58-1.8s2.49-3.74,2.85-5.9A37.69,37.69,0,0,0,462.9,82.34Z" transform="translate(-253.59 -38)"/><path class="cls-2" d="M449.54,104.5c-1.74,1.28-3.51,2.54-5.26,3.79l.14-.4q2.19-5.46,4.76-10.76a18.88,18.88,0,0,1,1.86,1.2,3.43,3.43,0,0,1,1.24,1.89C452.63,102.16,450.93,103.48,449.54,104.5Z" transform="translate(-253.59 -38)"/><path class="cls-2" d="M462,86.44a33.27,33.27,0,0,1-1,7.1c-1.3,4.72-5.42,2.93-8.62,4.94a10.4,10.4,0,0,0-2.78-2.16,174.18,174.18,0,0,1,10.08-17.78C462.7,79.59,462.09,84,462,86.44Z" transform="translate(-253.59 -38)"/><path class="cls-1" d="M709.16,268.68a19,19,0,0,0-9.2,6.8c-3.85,5.39-4.44,13.11-3.49,19.49.28,1.92.86,4.3,2.67,5.36,3,1.76,6.18-1.57,8.24-3.29a122.67,122.67,0,0,0,12.53-11.91c3.17-3.53,7.54-8,9.13-12.55C732.35,263.21,713.14,267.29,709.16,268.68Z" transform="translate(-253.59 -38)"/><path class="cls-1" d="M725.27,275.87a93.82,93.82,0,0,1-14,15.68c-2.28,2.09-4.62,4.18-7.07,6.07-1.47,1.12-3.42,1.88-4.73.15s-1.65-4.32-1.65-6.59a60.7,60.7,0,0,1,.22-7.14,16.67,16.67,0,0,1,.61-2.87,14.61,14.61,0,0,1,.5-1.4c.15-.35.65-1,.65-1.38a17.48,17.48,0,0,1,8.28-7.61c.48-.21,1-.35,1.48-.58a37.64,37.64,0,0,1,11.73-1.88c1.37,0,3.37-.27,4.61.29C729.86,270.41,726.6,273.94,725.27,275.87Z" transform="translate(-253.59 -38)"/><path class="cls-1" d="M660.24,316.61a.74.74,0,0,0-.49-.69c1.42-3.55.12-7.81-4.17-10.25-4.6-2.62-10.82-2.27-15.91-2.35-4.33-.07-8.65.05-13,.33-4.1.27-8.12.85-12.24.85a33.85,33.85,0,0,0-7.64.81c-5,1.17-9.39,4.19-9.48,9.75a7.61,7.61,0,0,0,1,4.13.54.54,0,0,0-.08.19c-1,4.53-.41,9,0,13.59l1.37,14.58c.46,5,.76,9.93,1.34,14.87.47,4.07-.55,10.9,3.89,13.15,1.8.91,4,.79,5.9,1,2.19.21,4.36.47,6.55.64a130,130,0,0,0,15.28.5,116.2,116.2,0,0,0,14.65-1.63c2.43-.42,4.85-.93,7.25-1.51,3.45-.83,4.92-2.07,4.82-5.81-.17-6.07.59-12.25.84-18.34C660.65,339.14,660.77,327.86,660.24,316.61Z" transform="translate(-253.59 -38)"/><path class="cls-2" d="M656.26,371.27a14.22,14.22,0,0,1-5.69,2.71c-2,.33-3.92.6-5.88.91a115.4,115.4,0,0,1-13.37,1.27,110.5,110.5,0,0,1-14-.4q-3.57-.31-7.11-.83c-2.19-.31-5.19-.43-6.4-2.7-1.6-3-1-7.42-1.39-10.73-.5-4.64-.78-9.3-1.22-13.95l-1.22-13c-.43-4.59-1.14-9.22-.37-13.8,4.23,3.72,13.33,2.71,18.28,2.78,6.49.08,13-.06,19.46-.44,5.49-.32,12-.08,17.17-2.17a9.73,9.73,0,0,0,4.18-3.13c-.64.86.19,5.14.22,6.29.06,2.33.11,4.66.13,7q.06,7-.13,14C658.76,351.66,659.08,369.41,656.26,371.27Z" transform="translate(-253.59 -38)"/><path class="cls-3" d="M657.71,368c-14.93,3.32-32.44,5.63-42.82-8.26-7.83-10.49-8.08-23.73-7.12-36.35-3.16-.27-6.18-1-8.14-2.7-.77,4.58-.06,9.21.37,13.8l1.22,13c.44,4.65.72,9.31,1.22,13.95.36,3.31-.21,7.7,1.39,10.73,1.21,2.27,4.21,2.39,6.4,2.7q3.54.51,7.11.83a110.4,110.4,0,0,0,14,.4,115.36,115.36,0,0,0,13.38-1.27c2-.31,3.92-.58,5.88-.91a14.36,14.36,0,0,0,5.69-2.71C656.88,370.86,657.35,369.68,657.71,368Z" transform="translate(-253.59 -38)"/><path class="cls-4" d="M657.08,317.45c-3.92,3.95-11.46,3.48-16.6,3.83a269.62,269.62,0,0,1-31.91.35c-2.63-.13-6.05,0-8.06-2.08-2.21-2.25-1.94-6.06-.3-8.5,2.27-3.37,6-4.5,9.89-4.79,12.61-1,25.48-2.27,38.1-1C653.62,305.82,663.56,310.94,657.08,317.45Z" transform="translate(-253.59 -38)"/><path class="cls-1" d="M681.44,226.22a44.18,44.18,0,0,0-1.63-10.54,50.84,50.84,0,0,0-4.44-11.42.34.34,0,0,0-.08-.09c-.15-.21.9-3.55.94-4.09.1-1.3-.35-2.66.32-3.79a5.6,5.6,0,0,0-.92-6.19,2.55,2.55,0,0,0-3.16-.61,4.29,4.29,0,0,0-.37-.67,2.5,2.5,0,0,0-3.25-.84,4.77,4.77,0,0,0-2.21-3.54,2.57,2.57,0,0,0-3.54,1.08,2.74,2.74,0,0,0-1.62-.92c-2.07-.33-3.18,1.61-2.66,3.35a8,8,0,0,0,.16,3.47l-7.55-1a.6.6,0,0,0-.61-.25l-4,.42a.79.79,0,0,0-.39,1.46l2.89,2.05a.62.62,0,0,0,.69.07l5.64,1.07s0,0,0,0c-1.15,1.57-.29,3.49.56,5a32.53,32.53,0,0,0,4.42,6c1.22,5.77,1.86,13.84-3.73,16.36a.85.85,0,0,0-.64.25,10.22,10.22,0,0,1-3.32.53c-5.86.07-12-1.07-17.81-1.72a.81.81,0,0,0-.95,0,.72.72,0,0,0-.43,1c-1.93,7.82-3.69,17.64,3.11,23.67,2.8,2.48,6.52,3.12,10.15,3.08a76.18,76.18,0,0,0,15-1.73,28.59,28.59,0,0,0,11.75-5.28,21.08,21.08,0,0,0,6.56-9.15A19.54,19.54,0,0,0,681.44,226.22Z" transform="translate(-253.59 -38)"/><path class="cls-2" d="M649.56,192.28l-.56-.4.7-.07Z" transform="translate(-253.59 -38)"/><path class="cls-2" d="M673,191.09l.09-.07c1.2-1.36,2.24,1.72,2.39,2.46a2.72,2.72,0,0,1-.52,2.46c-.74.77-2.07.49-1.93-.7a.64.64,0,0,0-.16-.51,3.94,3.94,0,0,0,.18-.48A7.2,7.2,0,0,0,673,191.09Z" transform="translate(-253.59 -38)"/><path class="cls-2" d="M669.06,189.75a.68.68,0,0,0,.38-.23c1.42-1.68,2.17,2.95,2.16,3.63,0,1.2-1,2.41-2.12,1.32-.65-.63-.5-2-.47-2.78a.78.78,0,0,0-.1-.39A5.75,5.75,0,0,0,669.06,189.75Z" transform="translate(-253.59 -38)"/><path class="cls-2" d="M664.41,186.47c.6-2.25,2.45.29,2.67.92a8.22,8.22,0,0,1,.33,1.47,4.93,4.93,0,0,1,0,2.26c-.75,1.92-2.29.6-2.85-.59a5,5,0,0,0,0-.77A9.66,9.66,0,0,0,664,187,.7.7,0,0,0,664.41,186.47Z" transform="translate(-253.59 -38)"/><path class="cls-2" d="M663.8,192.42a3.45,3.45,0,0,0,1.42,1.19.71.71,0,0,0,0,.66c.38.69-.66.78-1.78.69,0-.69-.05-1.39-.07-2.08A2.93,2.93,0,0,0,663.8,192.42Z" transform="translate(-253.59 -38)"/><path class="cls-2" d="M660.3,187.51a0,0,0,0,0,0,0c.18-.44.36-.87.53-1.31l1,.26a2.58,2.58,0,0,1,.73,1.27,7,7,0,0,1,.48,2.35.64.64,0,0,0-.08.64v0a1.56,1.56,0,0,1-1.17,1.17.72.72,0,0,0-.32-.13l-.34,0a1.49,1.49,0,0,1-.28-.23c-.86-.88-.59-2.4-.42-3.49A.79.79,0,0,0,660.3,187.51Z" transform="translate(-253.59 -38)"/><path class="cls-2" d="M651.07,192.72l.24-.8,9.14,1.28a3.26,3.26,0,0,0,.6.24,2.54,2.54,0,0,0,.8.1l0,1.22c-.44-.07-.75-.13-.76-.14l-3.62-.68Z" transform="translate(-253.59 -38)"/><path class="cls-4" d="M651.41,247.39c-3.88.35-8.18.8-11.74-1.17-8.25-4.57-6.3-15.49-4.44-23.07,4.85.5,9.69,1,14.54,1.5a19.43,19.43,0,0,0,6.19-.11,47,47,0,0,0,4,21.8C657.12,246.85,654.26,247.13,651.41,247.39Z" transform="translate(-253.59 -38)"/><path class="cls-2" d="M679.68,229.28c-1.55,8.23-7.34,13.61-15.2,16q-1.47.43-3,.75a45.32,45.32,0,0,1-4-22,7.78,7.78,0,0,0,1.47-.85c5.55-4.07,4.36-11.68,3.12-17.49a.51.51,0,0,0-.07-.17s0,0,0-.05a.41.41,0,0,0-.07-.11,1.19,1.19,0,0,0-.09-.15,30.4,30.4,0,0,1-4.14-5.49,8.6,8.6,0,0,1-.9-1.76c-.24-.84-.12-2.1,1-2.27a1.34,1.34,0,0,1,.28,0l.45.09c1.12.42,1.75,2.17,2.1,3.11a.79.79,0,0,0,.74.53.73.73,0,0,0,.36,0,2.94,2.94,0,0,1,2.44.59c.8.61,1.59-.75.79-1.36a4.37,4.37,0,0,0-3.06-.83,12.2,12.2,0,0,0-.66-1.42,15.26,15.26,0,0,0,2.81.37c1.9,0,3.46-1.18,2.62-3l.14,0a2.48,2.48,0,0,0,.64-.28,3.34,3.34,0,0,0,2,3,2.34,2.34,0,0,0,2-.2,2.6,2.6,0,0,0,2.58,1.77,2.54,2.54,0,0,0,.55-.1,12.55,12.55,0,0,1-.94,6,.82.82,0,0,0,.21,1,.55.55,0,0,0,.07.23,48.56,48.56,0,0,1,5.75,23.63C679.74,228.88,679.72,229.08,679.68,229.28Z" transform="translate(-253.59 -38)"/><path class="cls-1" d="M651,287.59c-1.31-4.17-3.39-8.26-5-12.33a66.56,66.56,0,0,1-4-33.89c.67-4.72,1.79-9.8-.35-14.06a13.27,13.27,0,0,0-7.84-6.25,33,33,0,0,0-10.16-1.27c-5.25,0-10.72.26-15.75,2a21.17,21.17,0,0,0-10.88,8.1,48.25,48.25,0,0,0-6.08,13.53,76,76,0,0,0-2,26,72.28,72.28,0,0,0,4.89,22.2,40.85,40.85,0,0,0,13.76,17.84A33.77,33.77,0,0,0,633,315a26.86,26.86,0,0,0,12.35-5.7,19.21,19.21,0,0,0,6.68-11.69A22.42,22.42,0,0,0,651,287.59Z" transform="translate(-253.59 -38)"/><path class="cls-4" d="M649.87,300.25c-5.76,16.86-29.91,16.52-41.93,7.64-13.53-10-17.31-27.67-17.64-43.55-.19-9.47.2-19.52,4.45-28.19a27.29,27.29,0,0,1,8.4-10.09c3.77-2.72,8.41-3.62,12.94-4.1,4.87-.52,10-1.23,14.85-.24a13.71,13.71,0,0,1,6.95,3.55,11.8,11.8,0,0,1,2.48,3.61c1.93,4.29.47,9.06-.14,13.48a64.54,64.54,0,0,0-.55,11.2,65.35,65.35,0,0,0,4.87,22.28C647.66,283.4,652.74,291.82,649.87,300.25Z" transform="translate(-253.59 -38)"/><path class="cls-1" d="M610.86,213c-.44-2.65-2.39-5.09-5.32-4.67a5.16,5.16,0,0,0-4.24,6.19,5.46,5.46,0,0,0,6.22,4.31C610.31,218.22,611.28,215.49,610.86,213Z" transform="translate(-253.59 -38)"/><path class="cls-2" d="M606.61,217.05a3.68,3.68,0,0,1-3.55-3.07,3.19,3.19,0,0,1,3.24-3.79C609.9,210.26,610.48,217,606.61,217.05Z" transform="translate(-253.59 -38)"/><path class="cls-1" d="M646.2,207.63c-.44-2.65-2.38-5.09-5.31-4.67a5.15,5.15,0,0,0-4.24,6.18,5.45,5.45,0,0,0,6.21,4.32C645.66,212.89,646.63,210.17,646.2,207.63Z" transform="translate(-253.59 -38)"/><path class="cls-2" d="M642,211.72a3.68,3.68,0,0,1-3.55-3.06,3.2,3.2,0,0,1,3.25-3.79C645.25,204.93,645.83,211.69,642,211.72Z" transform="translate(-253.59 -38)"/><path class="cls-1" d="M627,220.32c-3.64-4.11-9.34-4.5-14.16-2.44a.62.62,0,0,0-.32.9.64.64,0,0,0-.1.18c-1.41,5.16-1.73,11.53,2.83,15.29a8.76,8.76,0,0,0,12.39-1.39A9.81,9.81,0,0,0,627,220.32Z" transform="translate(-253.59 -38)"/><path class="cls-3" d="M626.34,231.87a7.2,7.2,0,0,1-11.71-.61c-2.32-3.59-1.79-8-.72-11.88a.84.84,0,0,0,0-.27c3.79-1.5,8.21-1.25,11.29,1.65A8.25,8.25,0,0,1,626.34,231.87Z" transform="translate(-253.59 -38)"/><path class="cls-1" d="M639.44,191.4A16.4,16.4,0,0,0,618.82,183a18.89,18.89,0,0,0-10.65,10.11,27.16,27.16,0,0,0-2,10.2,41.63,41.63,0,0,0,.51,10.1,18.61,18.61,0,0,0,10.28,13.19c7.71,3.54,17.27.71,21.31-6.89,2.08-3.91,2.6-8.47,3-12.82C641.62,201.66,641.63,196.25,639.44,191.4Z" transform="translate(-253.59 -38)"/><path class="cls-2" d="M639.82,203.93c-.38,9.73-2.79,21.55-14.57,22.6a15,15,0,0,1-13.4-6.11c-4.35-5.82-5.07-15-3.7-21.95a21.21,21.21,0,0,1,2.72-7,16.26,16.26,0,0,1,12.52-7.9C635.37,182.57,640.21,193.7,639.82,203.93Z" transform="translate(-253.59 -38)"/><path class="cls-2" d="M639.82,203.93c-.38,9.73-2.79,21.55-14.57,22.6a15,15,0,0,1-13.4-6.11c-4.35-5.82-5.07-15-3.7-21.95a21.21,21.21,0,0,1,2.72-7,16.26,16.26,0,0,1,12.52-7.9C635.37,182.57,640.21,193.7,639.82,203.93Z" transform="translate(-253.59 -38)"/><path class="cls-3" d="M623.39,183.53a16.26,16.26,0,0,0-12.52,7.9,21.21,21.21,0,0,0-2.72,7,35,35,0,0,0-.23,11.77,28,28,0,0,0,9.07-9.09c1.66,2.71,4.06,5.6,7.55,5a4,4,0,0,0,3.49-3.76c3.44,2.48,7.33,4.71,11.63,4.08.07-.86.12-1.73.16-2.57C640.21,193.7,635.37,182.57,623.39,183.53Z" transform="translate(-253.59 -38)"/><path class="cls-1" d="M645.11,186.55c-3.11-5.52-10.8-6.91-16.76-7.75a2.69,2.69,0,0,0,1.19-2.69c-.39-2-2.2-1.92-3.78-1.54A24.93,24.93,0,0,0,611.23,185c-3.69.5-6.49,5.29-7.61,8.29A17.12,17.12,0,0,0,605.68,209a.76.76,0,0,0,.68.36.75.75,0,0,0,1.29.39,32.31,32.31,0,0,0,7.67-15.45l.06-.34a17.67,17.67,0,0,0,7,8.75.8.8,0,0,0,1.19-.69,20,20,0,0,0-1-5.92,40.9,40.9,0,0,0,16.77,7.28.66.66,0,0,0,1-.06C644,198.75,648.47,192.51,645.11,186.55Z" transform="translate(-253.59 -38)"/><path class="cls-1" d="M612.4,198.88A30.52,30.52,0,0,1,607,208a16.14,16.14,0,0,1-2.79-10.21,15.09,15.09,0,0,1,1.95-6.17c.72-1.27,5.8-8.79,8.08-2.47,0,.14.09.3.13.46s0,.39.08.58C614.65,192.85,613.15,196.87,612.4,198.88Z" transform="translate(-253.59 -38)"/><path class="cls-1" d="M639.55,201.75A39.28,39.28,0,0,1,621.21,193a.8.8,0,0,0-1.24,1,17.8,17.8,0,0,1,1.92,6.39,16,16,0,0,1-6-10.8.91.91,0,0,0-.13-.35c-.13-1.87-.8-3.52-2.7-4a23.59,23.59,0,0,1,6.73-6.32,23.9,23.9,0,0,1,4.41-2.13c.43-.16,1.5-.71,1.95-.6,1,.23.8,1.81-.29,2.33a.68.68,0,0,0-.24,1.07.6.6,0,0,0,.57.59c4.95.69,10.29,1.37,14.52,4.25C647.82,189.17,643.62,196.6,639.55,201.75Z" transform="translate(-253.59 -38)"/><path class="cls-1" d="M621.81,213.34a3.67,3.67,0,0,1-2.75.54c-1-.21-1.41,1.31-.42,1.51a5.25,5.25,0,0,0,4-.69C623.45,214.16,622.66,212.79,621.81,213.34Z" transform="translate(-253.59 -38)"/><path class="cls-1" d="M634.81,210.7a2.06,2.06,0,0,1-2.16.37c-.95-.34-1.36,1.18-.41,1.52a3.64,3.64,0,0,0,3.68-.78C636.67,211.13,635.55,210,634.81,210.7Z" transform="translate(-253.59 -38)"/><path class="cls-1" d="M628.87,210.87a.79.79,0,0,0-1.36.79,6.39,6.39,0,0,1,.73,4.81c-.23,1,1.28,1.4,1.52.42A8.07,8.07,0,0,0,628.87,210.87Z" transform="translate(-253.59 -38)"/><path class="cls-1" d="M616.11,264.32A179.51,179.51,0,0,0,611.22,230c-.45-1.95-.85-3.92-1.34-5.85a5.4,5.4,0,0,0-.54-1.45c-.77-1.26-2.65-1.53-3.92-2.07a20.06,20.06,0,0,0-5.19-1.51c-3.53-.48-6.89.63-8.9,3.69a11.84,11.84,0,0,0-.91,1.68c-1.93,4.33-2,9.68-2,14.32a71.48,71.48,0,0,0,2,16.67c1.89,7.89,5.27,20,14.58,21.87C613.35,279.07,616.35,271.24,616.11,264.32Z" transform="translate(-253.59 -38)"/><path class="cls-4" d="M613.46,271.85c-3.44,7.38-12.13,3.67-15.62-1.47-5.78-8.53-7.74-20.73-7.85-30.81,0-4.89-.18-11,2.34-15.36,3.66-6.36,10.82-3.32,15.76-.46a.27.27,0,0,0,0,.09,220.48,220.48,0,0,1,6,34.32C614.49,262.51,615.38,267.74,613.46,271.85Z" transform="translate(-253.59 -38)"/><path class="cls-1" d="M620.55,221.59a2,2,0,0,0-1.3-2.12,2.69,2.69,0,0,0-.61-.14c.21-1-.29-2-1.8-2.2a6.5,6.5,0,0,0-2.11.05,1.94,1.94,0,0,0-.45-2.41c-1.71-1.59-4.11.26-5.29,1.54a10.61,10.61,0,0,0-1.29,12.59c-3.16,11.92-12.28,22.06-12,34.79a.7.7,0,0,0-.12.45c.39,4.84,2.45,9.7,7,12a10.18,10.18,0,0,0,12.65-2.43c3.73-4.5,3.93-11.11,4.43-16.66a161.88,161.88,0,0,0,.29-24.62c1.2-.61,1.55-2,1.63-3.35a3.85,3.85,0,0,1,.77-2.71c.27-.33.62-.6.88-.95a3,3,0,0,0,.71-2.09C623.66,221.67,622,221.27,620.55,221.59Z" transform="translate(-253.59 -38)"/><path class="cls-2" d="M621.85,224.54a6,6,0,0,1-.67.74,4.62,4.62,0,0,0-1.06,1.78c-.32,1.19.33,3.75-1.32,4.13a.7.7,0,0,0-.48,1s0,0,0,.05a151.47,151.47,0,0,1-1,31.21c-.76,5.2-2.73,11.77-9,12.26s-10.19-4.76-11.07-10.38a.61.61,0,0,0,0-.28c-.94-12.73,8-22.85,11.55-34.52a12.27,12.27,0,0,0,1.33,1.37c.76.66,1.88-.45,1.11-1.11a9.33,9.33,0,0,1-3.51-8.06,9,9,0,0,1,1.26-3.91,7.49,7.49,0,0,1,1.39-1.79c3-2.1,3.43,0,1.57,1.13a10.07,10.07,0,0,0-1.92,1.4c-.74.69.37,1.8,1.11,1.11a7.33,7.33,0,0,1,3.35-1.84,4.2,4.2,0,0,1,1.79-.2c.59-.1.8.16.64.78a3.34,3.34,0,0,1-.4.35l-.19.1c-1.35.75-2.61,1.73-3.89,2.59-.84.55,0,1.92.79,1.35l2.82-1.88c.35-.24.7-.49,1.08-.7a2.38,2.38,0,0,1,1-.38c.48-.08,1.77.06.2,1.62a14.13,14.13,0,0,0-3.47,3c-.65.76.46,1.88,1.11,1.11A12.39,12.39,0,0,1,619,224a4.89,4.89,0,0,1,1.74-.86C622.15,223.49,622.53,224,621.85,224.54Z" transform="translate(-253.59 -38)"/><path class="cls-1" d="M711.44,357.59a33.67,33.67,0,0,0-20.07-1.42,11.73,11.73,0,0,0-7.08,4.16c-1.8,2.47-3.63,5.15-3.72,8.33a9.24,9.24,0,0,0,.21,2.1c.82,3.55,3.79,5.28,7.22,5.59,6.27.57,13.18-1.1,19.41-1.77,4.24-.46,10.51,0,14.2-2.54C729.2,366.79,715.44,359.18,711.44,357.59Z" transform="translate(-253.59 -38)"/><path class="cls-1" d="M719.69,371.23c-3,1.58-7.46,1.26-10.79,1.62L697,374.13c-3.39.37-7.63,1.43-11,.29-2.13-.72-3.82-2.24-3.94-4.59a11.75,11.75,0,0,1,1.94-6.15c1-1.76,1.93-3.85,3.84-4.83a23,23,0,0,1,7.63-1.85,32,32,0,0,1,18.89,3.71C716.92,362.09,726,367.91,719.69,371.23Z" transform="translate(-253.59 -38)"/><path class="cls-1" d="M710.93,356.24h0q-4-17.93-8.85-35.66c-3.06-11.17-5.89-22.75-10.35-33.46-3.29-7.91-8.32-15.58-16.22-19.49-7-3.46-15.42-3-21.45,2.07a.74.74,0,0,0-1,.3,119.83,119.83,0,0,0-14.94,38.2.78.78,0,0,0,.27.76.82.82,0,0,0,1.35.69,17.64,17.64,0,0,1,19.49-2.39c6.16,3.25,9,10.06,11.25,16.26A252.76,252.76,0,0,1,681.66,365a1.43,1.43,0,0,0,.89.89,61.38,61.38,0,0,0,28-8.83A.74.74,0,0,0,710.93,356.24Z" transform="translate(-253.59 -38)"/><path class="cls-2" d="M676.89,337.91c-2.28-7.75-4.52-16-8.43-23.13-5.77-10.53-18.77-14.49-28.55-7.24a118.56,118.56,0,0,1,14.32-36.37.79.79,0,0,0,.7-.17c7.93-6.88,19.19-4.2,26.24,2.55,6.87,6.59,10,15.82,12.78,24.7q8.84,28.58,15.32,57.81a59.77,59.77,0,0,1-26.15,8.26A259,259,0,0,0,676.89,337.91Z" transform="translate(-253.59 -38)"/><path class="cls-2" d="M676.89,337.91c-2.28-7.75-4.52-16-8.43-23.13-5.77-10.53-18.77-14.49-28.55-7.24a118.56,118.56,0,0,1,14.32-36.37.79.79,0,0,0,.7-.17c7.93-6.88,19.19-4.2,26.24,2.55,6.87,6.59,10,15.82,12.78,24.7q8.84,28.58,15.32,57.81a59.77,59.77,0,0,1-26.15,8.26A259,259,0,0,0,676.89,337.91Z" transform="translate(-253.59 -38)"/><path class="cls-3" d="M694.17,299c-.08-.23-.15-.47-.22-.71-2.74-8.88-5.91-18.11-12.78-24.7-7-6.75-18.31-9.43-26.24-2.55a.79.79,0,0,1-.7.17,118.56,118.56,0,0,0-14.32,36.37c8.92-6.62,20.53-3.89,26.88,4.63a15.21,15.21,0,0,1,6.37-13.59C679.8,294.08,687.72,295.17,694.17,299Z" transform="translate(-253.59 -38)"/><path class="cls-1" d="M708.3,351.57a72.94,72.94,0,0,1-26.55,7.84c-1,.1-1,1.67,0,1.57a75.34,75.34,0,0,0,27.35-8.05C710,352.47,709.2,351.11,708.3,351.57Z" transform="translate(-253.59 -38)"/><path class="cls-1" d="M709.76,267.33c-7.33-16.18-26.41-21.93-42.79-18.13-14.38,3.34-25.93,12.25-36.19,22.48a.7.7,0,0,0-.28,0,84.16,84.16,0,0,0-34.8,23.13l0,.07,0,0a.79.79,0,0,0,.11,1c6.46,18.78,28.17,25.92,45,15.68,9.43-5.74,16.36-14.76,25.89-20.35,9.33-5.47,24.85-6.75,29.68,5.45a.83.83,0,0,0,.2.3.72.72,0,0,0,1.25.32,51,51,0,0,0,11.86-29.15A.79.79,0,0,0,709.76,267.33Z" transform="translate(-253.59 -38)"/><path class="cls-2" d="M697.39,295.35c-3.16-6.63-10.37-10-17.61-9.83-9.71.17-17.95,6.63-24.91,12.75-8.93,7.84-18.08,16.8-30.8,16.75a28.5,28.5,0,0,1-26.82-19.52,82.42,82.42,0,0,1,31-21.3c-3.53,3.66-6.92,7.44-10.24,11.15-.67.76.44,1.87,1.12,1.12,12.51-14,25.88-28.91,44.41-34.71,16.46-5.16,36.65-.78,44.57,15.85a.78.78,0,0,0-.07.23A49.23,49.23,0,0,1,697.39,295.35Z" transform="translate(-253.59 -38)"/><path class="cls-1" d="M704,261.88a65.19,65.19,0,0,1-6.76,22.59,31.83,31.83,0,0,0-23.55-3.4c-8.81,2.23-15.77,8.45-22.38,14.34-7.9,7-17,14.91-28.33,14.25-10.93-.63-16.64-10.32-21.25-19-.47-.89-1.83-.1-1.35.79,3.76,7.07,8.11,14.89,15.83,18.21,8.21,3.53,17.53.68,24.68-3.91,8.59-5.53,15.15-13.67,23.84-19.06,9.86-6.12,21.67-6.63,31.77-.85q-1.41,2.63-3.08,5.13c-.56.85.8,1.63,1.36.79a67,67,0,0,0,10.79-29.91C705.69,260.88,704.12,260.88,704,261.88Z" transform="translate(-253.59 -38)"/><path class="cls-1" d="M532.75,280.44" transform="translate(-253.59 -38)"/><path class="cls-2" d="M566,375.86l0-95.45a4.42,4.42,0,0,1,4.41-4.41h0a4.42,4.42,0,0,1,4.41,4.41l0,95.45a4.43,4.43,0,0,1-4.41,4.41h0A4.42,4.42,0,0,1,566,375.86Z" transform="translate(-253.59 -38)"/><path class="cls-3" d="M574.82,280.41a4.36,4.36,0,0,0-.58-2.18c-2.52-.1-5.06-.1-7.56-.15a4.33,4.33,0,0,0-.68,2.33V295.6q4.43-.48,8.81-1.26Z" transform="translate(-253.59 -38)"/><path class="cls-5" d="M566,377.49,566,282a4.42,4.42,0,0,1,4.41-4.41h0a4.42,4.42,0,0,1,4.41,4.4l0,95.46a4.43,4.43,0,0,1-4.41,4.41h0A4.42,4.42,0,0,1,566,377.49Z" transform="translate(-253.59 -38)"/><path class="cls-6" d="M625,284.82H515.82a4.42,4.42,0,0,1-4.41-4.41h0a4.42,4.42,0,0,1,4.41-4.41H625a4.42,4.42,0,0,1,4.41,4.41h0A4.42,4.42,0,0,1,625,284.82Z" transform="translate(-253.59 -38)"/><path class="cls-6" d="M570.42,376.68c-24,0-43.55,3.13-43.55,7H614C614,379.81,594.48,376.68,570.42,376.68Z" transform="translate(-253.59 -38)"/><path class="cls-1" d="M594.17,274.12l-.82-4.1a.82.82,0,0,0-.25-.43,1.72,1.72,0,0,0-.58-.33,7.54,7.54,0,0,0-1.27-.29,45,45,0,0,0-6.46-.39H522.42a49.52,49.52,0,0,0-5.38.26,12.67,12.67,0,0,0-1.73.3,2.75,2.75,0,0,0-.62.24,1.3,1.3,0,0,0-.31.24.77.77,0,0,0-.19.49v.13l.81,4.1a.79.79,0,0,0,.26.43,1.72,1.72,0,0,0,.58.33,7.4,7.4,0,0,0,1.26.29,45,45,0,0,0,6.47.39H586a49.52,49.52,0,0,0,5.38-.26,12.22,12.22,0,0,0,1.72-.3,2.65,2.65,0,0,0,.63-.24,1.3,1.3,0,0,0,.31-.24.75.75,0,0,0,.19-.49Z" transform="translate(-253.59 -38)"/><path class="cls-3" d="M586,274.44H523.58a51.65,51.65,0,0,1-5.33-.25,12.05,12.05,0,0,1-1.56-.26.58.58,0,0,1-.17-.05l-.69-3.48c.12,0,.29-.07.49-.1a39.6,39.6,0,0,1,6.1-.38h62.37a51.3,51.3,0,0,1,5.32.25,12.6,12.6,0,0,1,1.57.26l.17.05.69,3.48c-.13,0-.29.07-.49.1A39.69,39.69,0,0,1,586,274.44Z" transform="translate(-253.59 -38)"/><path class="cls-1" d="M576.31,264.85l-8.66-32a10.45,10.45,0,0,0-3.48-5.25,9,9,0,0,0-5.62-2.19h-53.1a5.62,5.62,0,0,0-4.12,1.65,5.81,5.81,0,0,0-1.55,4.11,8.07,8.07,0,0,0,.28,2.09l8.67,32a10.45,10.45,0,0,0,3.48,5.25,9.07,9.07,0,0,0,5.62,2.2h53.1a5.63,5.63,0,0,0,4.12-1.66,5.88,5.88,0,0,0,1.55-4.11A7.79,7.79,0,0,0,576.31,264.85Z" transform="translate(-253.59 -38)"/><path class="cls-2" d="M573.91,270a4,4,0,0,1-3,1.17h-53.1a7.49,7.49,0,0,1-4.63-1.83,9,9,0,0,1-3-4.45l-8.67-32a6.39,6.39,0,0,1-.23-1.68,4.31,4.31,0,0,1,1.11-3,4,4,0,0,1,3-1.17h53.1a7.39,7.39,0,0,1,4.62,1.84,8.89,8.89,0,0,1,3,4.44l8.67,32a6.39,6.39,0,0,1,.23,1.68A4.26,4.26,0,0,1,573.91,270Z" transform="translate(-253.59 -38)"/><path class="cls-3" d="M570.61,270a3.8,3.8,0,0,1-2.83,1.11H517.5a7,7,0,0,1-4.38-1.73,8.51,8.51,0,0,1-2.8-4.2L502.12,235a5.75,5.75,0,0,1-.23-1.58,4.08,4.08,0,0,1,1.06-2.86,3.8,3.8,0,0,1,2.83-1.11h50.28a7.11,7.11,0,0,1,4.38,1.73,8.5,8.5,0,0,1,2.8,4.21l8.2,30.22a5.74,5.74,0,0,1,.22,1.59A4,4,0,0,1,570.61,270Z" transform="translate(-253.59 -38)"/><path class="cls-1" d="M580.24,171.8c-2.36-11.06-14.45-15.6-23.54-8.8a15.44,15.44,0,0,0-5.79,15.66,14,14,0,0,0,3.55,6.65,13.44,13.44,0,0,0,3.16,2.41c2.06,1.13,4.68,1.81,7,.86a5.16,5.16,0,0,0,3.3-5.3c-.36-3.05-3.49-4.24-5.39-6.17s-.5-4.51,1.2-5.94a4,4,0,0,1,4.2-.47,8.72,8.72,0,0,1,3.93,3.5c3.57,6.09-.31,13.71,2.29,20.12,1.34,3.3,4.52,6.37,8.34,5.77,4.29-.67,4.89-4.9,2.26-7.72-1.63-1.73-3.23-2.73-4-5.17a18.07,18.07,0,0,1-.33-6.43A31.71,31.71,0,0,0,580.24,171.8Z" transform="translate(-253.59 -38)"/><path class="cls-4" d="M580.37,190.18a15.05,15.05,0,0,0,2.52,2.65c2.91,2,2.83,6.63-3.41,5.31a5.19,5.19,0,0,1-2.11-1.62c-6.54-6.84,2.86-24.49-9.57-27.46-4.42-1.06-9.52,2.8-7.77,7.58a6.84,6.84,0,0,0,2.75,3,14,14,0,0,1,2.76,1.85,3.49,3.49,0,0,1,.29,3.4,4,4,0,0,1-2.63,2.52,8.23,8.23,0,0,1-4.87-1.15,12.24,12.24,0,0,1-3.68-3.15,13,13,0,0,1-2.65-9,13.28,13.28,0,0,1,2.35-6.53c4.38-6.31,14-8.81,20.07-3.35s4.12,12.5,4.29,19.52A12.16,12.16,0,0,0,580.37,190.18Z" transform="translate(-253.59 -38)"/><path class="cls-1" d="M593,202.94a4.74,4.74,0,0,0-4.17-2.23c-2.07,0-3,1.38-3.44,3.25a4.06,4.06,0,0,0,.74,3.43,4.11,4.11,0,0,0,6.87-4.45Z" transform="translate(-253.59 -38)"/><path class="cls-4" d="M590.79,207a2.52,2.52,0,0,1-3.45-.65,2.63,2.63,0,0,1,.54-3.57,2.69,2.69,0,0,1,3.61.64A2.57,2.57,0,0,1,590.79,207Z" transform="translate(-253.59 -38)"/><path class="cls-1" d="M312,144a.67.67,0,0,0-.94.09c-3.14-.84-5.48,1.12-3.81,4.42,2.12,4.18,6.27,7.44,10.42,9.41a.64.64,0,0,0,.95-.55A17.77,17.77,0,0,0,312,144Z" transform="translate(-253.59 -38)"/><path class="cls-1" d="M309.38,149.54a5.31,5.31,0,0,1-.88-1.35c-.21-.87,1.35-3.15,2.44-2.81a.52.52,0,0,0,.56-.12,16.51,16.51,0,0,1,5.74,11.05,23.06,23.06,0,0,1-5.28-3.78A22.24,22.24,0,0,1,309.38,149.54Z" transform="translate(-253.59 -38)"/><path class="cls-1" d="M379.09,266.66a.67.67,0,0,0-.16-.83A122.1,122.1,0,0,0,369,235.71c-3.49-7.19-8.5-15.89-17.56-16.14-9.43-.26-12.21,9.56-11.91,17.26.47,12.23,1.79,24.49,2.71,36.7a.64.64,0,0,0,.95.54A79.36,79.36,0,0,1,377.86,267c0,.18.07.36.1.53.15.81,1.37.47,1.23-.33C379.16,267,379.12,266.82,379.09,266.66Z" transform="translate(-253.59 -38)"/><path class="cls-3" d="M343.44,272.59Q342.36,258.3,341.3,244c-.37-4.86-1.2-10.1.12-14.88,1.49-5.37,5.93-9.13,11.68-8.11,9.1,1.6,13.42,12,16.71,19.46a121,121,0,0,1,7.8,25.2A80.53,80.53,0,0,0,343.44,272.59Z" transform="translate(-253.59 -38)"/><path class="cls-1" d="M278.53,191.39c-1.94-2.1-3.62-4.67-2.64-7.65.88-2.68,3.32-4.47,5.21-6.4,2.11-2.14,4.23-4.87,3.72-8.08-.68-4.32-5.33-5.9-7.19-9.48-2.74-5.27,4.59-5.15,4.78-9.51.11-2.69-6.56-4.37-8.58-4.74a14.87,14.87,0,0,0-10.66,1.92c-5.07,3.21-7.43,10.05-4.26,15.43.81,1.38,2,2.47,2.87,3.8,1.88,2.87,1.48,5.85,0,8.77-2,3.79-5.39,6.63-7.16,10.55-2.57,5.67.19,9.88,4.71,13.22,2.44,1.79,5.33,3.42,6.92,6.08,2.7,4.5,0,9.67.52,14.48.42,4.19,5.17,9.68,9.42,5.81,2.77-2.53,1.63-6.66,2.4-9.88.86-3.59,3.61-6.25,5.31-9.43C287.37,199.72,282.76,196,278.53,191.39Z" transform="translate(-253.59 -38)"/><path class="cls-1" d="M283.85,202.83c-.55,2.95-2.79,5.36-4.35,7.82a14.62,14.62,0,0,0-2.38,6c-.26,2,.08,4.13-.64,6-1.88,5-7.19,2.34-8.24-1.52-1.61-6,2.6-12.2-1.76-17.63-3-3.77-8.48-5.36-10.83-9.69-3.87-7.15,5.52-13.3,7.91-19.31a8.64,8.64,0,0,0-.43-8.07c-2.37-3.85-5.29-6.29-4.1-11.32,2.44-10.31,14.91-9.94,22-5.18.34,2.3-3,2.87-4.17,4.15a4.56,4.56,0,0,0-1.14,2.52,7.19,7.19,0,0,0,2,5.54c2.46,2.87,7,5.31,5.55,9.85-1.21,3.69-5,5.71-7.21,8.72-3.22,4.46-1.37,8.68,2.17,12.24C281,195.69,284.68,198.44,283.85,202.83Z" transform="translate(-253.59 -38)"/><path class="cls-1" d="M284,146.63a.54.54,0,0,0-.78-.41.28.28,0,0,0-.11-.05c-5.8-1.58-10.68,4.92-6.9,9.89,1.46,1.92,4.45,3.11,6.3,1C284.74,154.54,284.48,149.7,284,146.63Z" transform="translate(-253.59 -38)"/><path class="cls-4" d="M282.4,154.4c-.36,1.12-.82,2.44-2.36,2.54-1.33.09-2.57-1.08-3.19-2.13a5.08,5.08,0,0,1,5.88-7.42h.07A15.63,15.63,0,0,1,282.4,154.4Z" transform="translate(-253.59 -38)"/><path class="cls-1" d="M320.61,348.12a.67.67,0,0,0-1,.26c-.65,1.48-1.31,3-1.95,4.44a4.09,4.09,0,0,0-.56,3.11c.75,2,3.45,1.94,5.2,2a78.07,78.07,0,0,0,10.14-.37c1.51-.15,3.15-.65,2.95-2.51s-3.14-3-4.58-3.74A36.34,36.34,0,0,0,320.61,348.12Z" transform="translate(-253.59 -38)"/><path class="cls-1" d="M332.94,353.66a.57.57,0,0,1,.13.08c.45.3,1.32.78,1.19,1.44-.26,1.37-2.59,1.15-3.62,1.17l-4.44.09c-1.92,0-3.9.16-5.82,0-1.07-.09-1.94-.15-2-1.43a7.72,7.72,0,0,1,1-3.14l1.09-2.46a35.82,35.82,0,0,1,6.12,1.53c1.46.52,2.93,1,4.34,1.67A15,15,0,0,1,332.94,353.66Z" transform="translate(-253.59 -38)"/><path class="cls-1" d="M295.19,333.71a.66.66,0,0,0-.75-.7l-4.8.69a4.09,4.09,0,0,0-2.93,1.18c-1.3,1.69.18,3.95,1.06,5.46a75.56,75.56,0,0,0,5.68,8.41c.92,1.21,2.21,2.33,3.69,1.17s.9-4.26.74-5.87A36.35,36.35,0,0,0,295.19,333.71Z" transform="translate(-253.59 -38)"/><path class="cls-1" d="M297,347.11c0,.05,0,.1,0,.15,0,.54,0,1.53-.58,1.77-1.31.51-2.35-1.58-2.92-2.44q-1.23-1.86-2.43-3.73a57.06,57.06,0,0,1-3.07-4.93c-.49-1-.9-1.73.18-2.43a7.75,7.75,0,0,1,3.21-.78l2.67-.38a36,36,0,0,1,1.93,6c.34,1.51.7,3,.89,4.56A16.24,16.24,0,0,1,297,347.11Z" transform="translate(-253.59 -38)"/><path class="cls-1" d="M370.3,143.58c-1.14-4.06-4.75-12.51-10.31-8.27a.65.65,0,0,0-.29.72c5,13.07-3.69,25.66-14.86,31.93A69.52,69.52,0,0,1,326,174.81c-3.24.74-6.5,1.34-9.77,1.89a39.6,39.6,0,0,0-8.78,2.05,49.26,49.26,0,0,0-8.77,4.9c-12,8.11-22.68,18.49-30.23,30.89-2.08,3.4-4,7.21-3.64,11.19a13.2,13.2,0,0,0,5.42,9.11,24.23,24.23,0,0,0,10,4.12,42.09,42.09,0,0,0,12.32.56,14.2,14.2,0,0,0,6-1.69,6.19,6.19,0,0,0,3.16-5.08,1.15,1.15,0,0,0-.35-.93,1.26,1.26,0,0,0-.92-.11c-4.9.59-10.29.17-14.07-3a4.28,4.28,0,0,1-1.81-3.24c.08-1.69,1.71-2.83,3.22-3.59,5.16-2.57,10.9-3.79,16.14-6.18l0,0c.26-.14,5.32,12.37,5.72,13.52.83,2.34,1.58,4.71,2.26,7.09.35,1.23.68,2.45,1,3.69.37,1.49.62,2.51,2,3.44a31.57,31.57,0,0,0,4.18,2.13,33,33,0,0,0,6.16,2.26,30.33,30.33,0,0,0,12.93.53,24.36,24.36,0,0,0,8.33-3.08A21.2,21.2,0,0,0,350,242.6a22.9,22.9,0,0,0,1.6-1.67c.29-.34,1.36-1.34,1.36-1.78,4.85-7.13,1.9-16.84-.43-24.36a93.71,93.71,0,0,0-9.24-20.55,41.48,41.48,0,0,0,27-50.66Z" transform="translate(-253.59 -38)"/><path class="cls-4" d="M366.73,172.05a40.86,40.86,0,0,1-24.09,21.08c-.76-1.23-1.53-2.44-2.34-3.64-.46-.67-1.56,0-1.1.64a94.14,94.14,0,0,1,10.91,21.35c2.53,7.09,6,16.74,3.26,24.14-2.7,7.19-11,11-18.22,11.79a28.09,28.09,0,0,1-20.56-6.06l0,0a121.32,121.32,0,0,0-12.78-32.45.64.64,0,0,0-1.1.64q1.47,2.56,2.8,5.19A127.1,127.1,0,0,0,288,220.46c-2.2,1-4.65,2.4-4.95,4.79s1.91,4.5,4.1,5.65a20.88,20.88,0,0,0,13.2,2.07,4.44,4.44,0,0,1-2.32,3.8,11,11,0,0,1-4.46,1.25,46.26,46.26,0,0,1-11.52-.1,23.47,23.47,0,0,1-10.69-3.73c-3.11-2.21-5.42-5.78-5.36-9.6,0-2.85,1.35-5.51,2.77-8,8.45-14.74,21.16-25,34.91-34.51,7.12-4.92,15.95-4.59,24-6.49,6.74-1.58,13.48-3.71,19.41-7.35A33.55,33.55,0,0,0,359,156.32a26.23,26.23,0,0,0,3.46-11.74,22.08,22.08,0,0,0-.58-6.06c-.39-1.57-1.1-2.64,1.06-2.81s3.62,1.83,4.49,3.51C372.46,149,371.27,162.36,366.73,172.05Z" transform="translate(-253.59 -38)"/><path class="cls-1" d="M378.75,122.41a2.09,2.09,0,0,0-1.91-2c-1.51-.24-3.27.59-4.67,1.2l1.48-1.34a8.42,8.42,0,0,0,2.32-2.44,1.75,1.75,0,0,0-1.53-2.54,5.4,5.4,0,0,0-2.73.58l0,0c-4.82-4.73-12.1,7.55-13.59,10.81a.63.63,0,0,0,0,.26c-.37-.45-.71-1-1.12-1.49a2.49,2.49,0,0,0-1.5-1.07c-1.47-.25-2.11,1.19-2,2.43.34,3.22,2.53,6,4.81,8.21a26.63,26.63,0,0,0,3.78,3c.51.33.87,0,1.31-.23s.76-.45,1.13-.69c.75-.49,1.47-1,2.18-1.57,1.42-1.11,2.77-2.29,4.15-3.45,1.66-1.38,3.35-2.75,5-4.16.58-.5,1.64-1.12,1.67-2a1.63,1.63,0,0,0-.31-1.15A2.71,2.71,0,0,0,378.75,122.41Z" transform="translate(-253.59 -38)"/><path class="cls-2" d="M375.59,124.2c-.81.38-1.76.52-2.56.88s-1.45.74-2.15,1.15c-1.12.64-2.21,1.34-3.25,2.08-.2.15-.4.29-.59.45-.59.48.25,1.31.83.83a23.59,23.59,0,0,1,5.34-3.37,6.19,6.19,0,0,1,1.76-.84.91.91,0,0,1,.49,0,.7.7,0,0,1,.43.66c0,.45-.38.67-.7.91s-.84.65-1.24,1-1,.72-1.49,1.12c-1.55,1.29-3.06,2.64-4.61,3.93-.85.71-1.72,1.4-2.61,2-.57.41-1.16.78-1.71,1.21a1.67,1.67,0,0,1-1,.43c-.61,0-1.12-.52-1.56-.89s-1.05-.91-1.56-1.39-.86-.85-1.26-1.3l-.34-.41c-.66-.81-3.38-4.34-3-5.47.82-2.61,1.42-.63,1.82,0a5.7,5.7,0,0,0,1.45,1.53,5.89,5.89,0,0,0,2.88,1c.75.09.74-1.1,0-1.18-1.07-.12-2.34-.54-1.84-1.36a49.79,49.79,0,0,1,4-6.39c1.25-1.5,5.12-6.18,7.52-4.38a22.13,22.13,0,0,0-2.62,1.81,17.09,17.09,0,0,0-4.53,5.57c-.35.67.67,1.27,1,.59a15.88,15.88,0,0,1,6.41-6.68c.55-.31,1.91-1.37,2.45-1.18,1.4-.11,1.63.61.85,1.64l-1.37,1.23a50.61,50.61,0,0,1-5.59,4.85c-.52.34-1,.7-1.52,1.08s0,1.48.59,1a28.07,28.07,0,0,1,4.68-2.94,25.12,25.12,0,0,1,4.07-1.6c.63-.17,2.07-.2,2,.79a1.75,1.75,0,0,1-.42.85A3,3,0,0,1,375.59,124.2Z" transform="translate(-253.59 -38)"/><path class="cls-1" d="M356.93,239.69a101.58,101.58,0,0,0-.64-11.57c0-.17-.05-.34-.08-.52a.92.92,0,0,0-.1-.32.51.51,0,0,0-.66-.11,108.94,108.94,0,0,1-42,10.42c-.3,0-1.88.25-1.7,1a103.73,103.73,0,0,1,2.62,15,108.81,108.81,0,0,1,.48,15.21,110.86,110.86,0,0,1-5.33,29.85,108.72,108.72,0,0,1-5.68,14.1,106.73,106.73,0,0,1-7.62,13.19c-.86,1.27-1.74,2.52-2.66,3.74-.45.62-.92,1.23-1.39,1.83a12,12,0,0,0-1.35,1.83c-.46.94.25,1.29.85,1.85l1.75,1.62a12.45,12.45,0,0,0,1.95,1.75c.82.47,1.31-.19,1.94-.67s1-.77,1.53-1.17c1-.79,2-1.6,3-2.43q2.94-2.48,5.69-5.16a107.07,107.07,0,0,0,10.15-11.44,108.8,108.8,0,0,0,8.41-12.75,107.31,107.31,0,0,0,6.53-13.8c.07-.17.13-.34.2-.5a11.32,11.32,0,0,0-.24,2.55c-.08.89-.17,1.78-.27,2.66q-.3,2.65-.66,5.31-.72,5.28-1.71,10.53a208,208,0,0,1-5,20.73c-.89,3-1.86,6-2.89,8.95s-2.16,5.59-3,8.48a.91.91,0,0,0-.05.33c.08.62,1.72.9,2.21,1.08a12.72,12.72,0,0,0,3,.71c1.49.15,4,.65,5.16-.61a3.5,3.5,0,0,0,.59-1c1-2.36,2.43-4.52,3.6-6.81q1.88-3.69,3.62-7.45,3.48-7.5,6.37-15.27t5.16-15.7q2.28-7.94,3.94-16t2.7-16.3c.69-5.46,1.17-11,1.44-16.46S357.09,245.2,356.93,239.69Z" transform="translate(-253.59 -38)"/><path class="cls-2" d="M328.4,350.35a11.71,11.71,0,0,1-8.07-.85,208.58,208.58,0,0,0,14.11-63.39,106,106,0,0,0,4.82-21.93l4-2.48c.7-.43.06-1.53-.64-1.1-.88.54-1.76,1.08-2.62,1.64-.66.42-1.56.74-1.94,1.47a6.78,6.78,0,0,0-.32,2.2c-.11.89-.25,1.78-.38,2.67a106.5,106.5,0,0,1-37.84,65.93q-1.77,1.42-3.6,2.78L292,333.7s4.6-6.16,5-6.74q2.39-3.49,4.48-7.16a109.73,109.73,0,0,0,7.24-15.21,112.57,112.57,0,0,0,4.84-16.1A111.34,111.34,0,0,0,316,271.85a110.08,110.08,0,0,0-.16-16.84q-.36-4.09-1-8.14c-.22-1.33-.46-2.67-.74-4-.21-1-.51-2.07-.73-3.12-.11-.54-.33-.84.25-1a29.48,29.48,0,0,1,4.1-.18c1.59-.13,3.19-.29,4.78-.49q4.76-.6,9.45-1.61a111.45,111.45,0,0,0,18.29-5.64l2.49-1a15.59,15.59,0,0,0,2.37-1.07A213.25,213.25,0,0,1,328.4,350.35Z" transform="translate(-253.59 -38)"/><path class="cls-3" d="M343.32,261.67l0,0-4,2.48a106,106,0,0,1-4.82,21.93q-.62,9.69-2.12,19.26A65.64,65.64,0,0,0,344,275.73C344.57,271.52,345.32,265.83,343.32,261.67Z" transform="translate(-253.59 -38)"/><path class="cls-1" d="M340.68,254.08a.33.33,0,0,0,0,.26c-.1,2.61-.33,5.22-.69,7.81a.4.4,0,0,0,0,.11l0,0c.2-.14.41-.26.62-.39.32-2.44.54-4.88.64-7.33,4.06-.76,4.76-5.41,4.52-8.87a75,75,0,0,0-2-12.45l-.6.2a78.5,78.5,0,0,1,1.72,9.88c.38,3.59.88,9.56-3.65,10.58a80.59,80.59,0,0,0-1.69-19.34c-.2.06-.4.13-.61.18A79.9,79.9,0,0,1,340.68,254.08Z" transform="translate(-253.59 -38)"/><path class="cls-1" d="M319.22,259c.26-6.87.27-13.74.2-20.61l-.63.06c.23,26.1-.64,53.16-13,76.74a77.16,77.16,0,0,1-12.4,17.47l-.3-.39-.39.52a16.6,16.6,0,0,0,4,3.92l.52-.4a16,16,0,0,1-3.42-3.14h0C312.64,313.41,318.19,285.45,319.22,259Z" transform="translate(-253.59 -38)"/><path class="cls-1" d="M329,349.39a19.57,19.57,0,0,1-8.45-1.52c-.38-.15-.54.46-.17.61A20,20,0,0,0,329,350C329.36,350,329.36,349.37,329,349.39Z" transform="translate(-253.59 -38)"/><path class="cls-1" d="M319,297.81l.33-.06a4.19,4.19,0,0,0,1.52-.5c.86-.56.77-1.68,1-2.57.8-3,1.51-5.95,2.11-9a135.92,135.92,0,0,0,2.36-18.19,139.18,139.18,0,0,0-14.53-71q-2.31-4.58-5-9-1.37-2.25-2.81-4.44c-.51-.77-1.24-3-2.48-2.78a1.74,1.74,0,0,0-.71.4c-1.88,1.49-3.79,3-5.71,4.42-1,.73-1.94,1.46-2.9,2.22-.41.32-2.83,1.84-2.83,2.31-2.38,2.06-3.26,4.37-2.06,7.41,1.56,4,4.66,7.58,7,11.12L302.74,221A83.44,83.44,0,0,1,294,292a.48.48,0,0,0-.3.5.53.53,0,0,0,.09.56c1.66,9.3,13.86,7.14,20.45,5.83C315.8,298.61,317.36,298.12,319,297.81Z" transform="translate(-253.59 -38)"/><path class="cls-2" d="M295,292.82a84.69,84.69,0,0,0,9.22-71.45.54.54,0,0,0,0-.58l-.29-.44c-.84-2.5-1.81-5-2.9-7.39-.34-.74-1.43-.1-1.1.64s.6,1.38.89,2.07q-5.14-7.74-10.26-15.5c-1.06-1.61-2.51-3.54-2.53-5.55,0-2.59,2.17-4,3.94-5.33q4.8-3.75,9.61-7.46l0,0A137,137,0,0,1,320,296.46C313.51,297.57,296.58,303,295,292.82Z" transform="translate(-253.59 -38)"/><path class="cls-1" d="M313.39,222.13a18.18,18.18,0,0,0-9.33,4.87,30.56,30.56,0,0,0-3.34,3.67c-.86,1.1-2.19,2.46-2.49,3.85a3.69,3.69,0,0,0,1.72,3.74,7.46,7.46,0,0,0,7.12.09.68.68,0,0,0,0,.14,2.49,2.49,0,0,0,4.5.54,3.08,3.08,0,0,0,.53-2.11,2.78,2.78,0,0,0,2-2.88c1.92-.93,1.67-3.45.56-5a5.42,5.42,0,0,0-2.5-2c1.54-.83,4.14-.73,4.37-2.84C316.79,222.3,314.85,221.9,313.39,222.13Z" transform="translate(-253.59 -38)"/><path class="cls-2" d="M313.49,225.2a8,8,0,0,0-2.85,1.45l0,0a6.22,6.22,0,0,0-2.18.2.64.64,0,0,0,.33,1.23,4.4,4.4,0,0,1,4.21.83c.87.78,2.09,3,.87,3.82a7.55,7.55,0,0,0-3.54-3.12c-.71-.39-1.36.71-.64,1.1a7.25,7.25,0,0,1,2.73,2c.64,1,.74,2.72-.64,3A7,7,0,0,0,309.2,233c-.7-.44-1.34.66-.64,1.09a4.18,4.18,0,0,1,2.29,3c.11,1.41-2,3-2.54,1.1a.65.65,0,0,0-.25-.33,7.68,7.68,0,0,0,.81-.55c.64-.49,0-1.59-.64-1.09a7.65,7.65,0,0,1-4.7,1.73,5.4,5.4,0,0,1-2.28-.42c-1.7-.74-2.37-2.3-1.17-3.81a58.58,58.58,0,0,1,3.84-4.75,21.15,21.15,0,0,1,4.85-3.67,16.33,16.33,0,0,1,2.79-1.28C313.56,223.34,317.4,223.45,313.49,225.2Z" transform="translate(-253.59 -38)"/><path class="cls-1" d="M387.21,269.27a10.25,10.25,0,0,0,0-3c-.07-1.21-.18-2.41-.34-3.61a49.46,49.46,0,0,0-1.4-6.93,63.25,63.25,0,0,0-5.23-12.92c-4.49-8.46-10.41-16.05-16.31-23.54-2.92-3.72-5.86-7.41-8.67-11.21-1.44-1.94-2.84-3.91-4.19-5.93q-1-1.47-1.92-3c-.38-.6-1.67-2-1.6-2.76a2.27,2.27,0,0,1,.14-.51,7.41,7.41,0,0,0-.4-2.85c-.2-1-.44-2-.71-3a41.54,41.54,0,0,0-2.11-6,26,26,0,0,0-7.14-9.94,10.07,10.07,0,0,0-8-2.12,70.28,70.28,0,0,0-8.38,1.58l-4.27,1c-1.34.31-4,.71-2.11,2.5a14.93,14.93,0,0,0,2.52,1.52,22.44,22.44,0,0,1,3.13,2.35,29.33,29.33,0,0,1,4.91,5.86c2.84,4.34,4.8,9.18,6.77,14a67.71,67.71,0,0,0,6.66,13.12,95.22,95.22,0,0,0,8.74,10.29c7,7.47,12.85,15.38,16.5,25A68.23,68.23,0,0,1,367.54,264a71.42,71.42,0,0,1,.6,7.74c0,2.21-1,4.77-.1,6.91a1.05,1.05,0,0,0,.64.63,1.43,1.43,0,0,0,.65,0,30.75,30.75,0,0,0,4.85-1.55,41.05,41.05,0,0,0,6.32-3c.5-.28,5.74-3.81,5.64-3.91l0,0a7.55,7.55,0,0,0,.83-1A2.25,2.25,0,0,0,387.21,269.27Z" transform="translate(-253.59 -38)"/><path class="cls-2" d="M369.26,277.88c1.37-20-6.13-38.53-19.63-53.12-3.7-4-7.57-7.91-10.59-12.48-3.2-4.84-5.23-10.29-7.45-15.61-3.43-8.22-7.85-16.63-16.27-20.57l10.62-2.29c4.54-1,8.41-1.22,11.86,2.39,4.55,4.75,7.2,11.44,8.4,17.9q-.85-1.57-1.62-3.18c-.36-.74-1.45-.09-1.1.64,12.61,26.29,42.67,46.25,42.52,77.68A40.63,40.63,0,0,1,369.26,277.88Z" transform="translate(-253.59 -38)"/><path class="cls-1" d="M298.46,170.9c-2.11-1.45-5.26-.28-6.27,2a4.58,4.58,0,0,0,2.18,6,4.52,4.52,0,0,0,5.88-2,4.94,4.94,0,0,0-1.74-6Z" transform="translate(-253.59 -38)"/><path class="cls-2" d="M299.15,176.27a3.27,3.27,0,0,1-4.5,1.36,3.34,3.34,0,0,1-1.19-4.42C295.41,169.69,300.81,172.8,299.15,176.27Z" transform="translate(-253.59 -38)"/><path class="cls-1" d="M321.7,156.65c-2.11-1.45-5.26-.28-6.27,2a4.58,4.58,0,0,0,2.18,6,4.51,4.51,0,0,0,5.88-2,5,5,0,0,0-1.74-5.95Z" transform="translate(-253.59 -38)"/><path class="cls-2" d="M322.39,162a3.27,3.27,0,0,1-4.5,1.37A3.34,3.34,0,0,1,316.7,159C318.65,155.44,324.05,158.55,322.39,162Z" transform="translate(-253.59 -38)"/><path class="cls-1" d="M316.17,178.59a6.17,6.17,0,0,1-1.12-4.68c4.81-4.67,5.49-11.77,3.05-17.85a29.11,29.11,0,0,0-6.67-9.65c-1.39-1.4-2.88-2.71-4.41-4a20.61,20.61,0,0,0-2.83-2.17,14.61,14.61,0,0,0-7.74-1.79,12.34,12.34,0,0,0-4.61,1.23,15.08,15.08,0,0,0-6.76,6.8,14.58,14.58,0,0,0-1.73,6.32c-.7,11.53,9,19.79,18.55,24.16h0l1.23,5.32c.31,1.31.44,3,1.25,4.08,1.27,1.78,3.62,1.76,5.57,1.53,2.68-.31,5.74-1.19,7.16-3.7a4.46,4.46,0,0,0-.79-5.53A.67.67,0,0,0,316.17,178.59Z" transform="translate(-253.59 -38)"/><path class="cls-2" d="M306.92,186.63c-2.44-1.2-2.7-4.1-2.89-6.5-.1-1.26-.2-2.95-1.06-4s-2.39-1-3.48-1.64-2-1.34-3-2a37,37,0,0,1-5.17-4.08,21.67,21.67,0,0,1-6.42-11.19l-.12-.68v0a15.88,15.88,0,0,1,1.52-9.53,13.57,13.57,0,0,1,6.54-6.43,10.55,10.55,0,0,1,3.83-.88,13.22,13.22,0,0,1,5.39.87c3.57,1.4,6.22,4.38,8.83,7.06a30.17,30.17,0,0,1,5,6.72,17.7,17.7,0,0,1,1.87,12.26,13.29,13.29,0,0,1-2.85,5.56c-.89,1-1.28,1.25-1.23,2.67a7.9,7.9,0,0,0,1.83,4.92C319.25,184.09,310.47,188.38,306.92,186.63Z" transform="translate(-253.59 -38)"/><path class="cls-3" d="M315.54,179.79a7.9,7.9,0,0,1-1.83-4.92,2.84,2.84,0,0,1,.2-1.33,16.13,16.13,0,0,1-3.64.77c-1.2.12-2.54.1-3.45,1-2.17,2.18.48,4.74,2.38,5.79,2.12,1.17,4.95,2.17,7.22,1.07A3.18,3.18,0,0,0,315.54,179.79Z" transform="translate(-253.59 -38)"/><path class="cls-3" d="M310.91,147.66c-2.61-2.68-5.26-5.66-8.83-7.06a13.22,13.22,0,0,0-5.39-.87,10.55,10.55,0,0,0-3.83.88,13.57,13.57,0,0,0-6.54,6.43,15.88,15.88,0,0,0-1.52,9.53v0l.12.68a21.67,21.67,0,0,0,6.42,11.19,34.87,34.87,0,0,0,4.18,3.4c.52-.23.36-.82,0-1.05a40.76,40.76,0,0,0-.22-16.86c6-.14,11.72-3.44,17.56-4.13C312.22,149.07,311.58,148.36,310.91,147.66Z" transform="translate(-253.59 -38)"/><path class="cls-1" d="M290.76,153.67c-2-3.27-7-8.56-10.7-4.12-3,3.56-1,9.74,1,13.27a20.77,20.77,0,0,0,6.41,7c1.23.84,6.66,4.46,7.82,2.44.52-.91.05-3.29,0-4.31a33,33,0,0,0-.71-4.85A31.55,31.55,0,0,0,291,154Z" transform="translate(-253.59 -38)"/><path class="cls-1" d="M280,153c.72-4.86,5.62-4.12,8.08-1.09a25.41,25.41,0,0,1,3.35,5.69,31.61,31.61,0,0,1,2.64,13.9C286.5,169.46,278.74,161.47,280,153Z" transform="translate(-253.59 -38)"/><path class="cls-1" d="M298.45,131.05c-8.88,1-20.14,8.58-16.65,18.81a.71.71,0,0,0,.55.49.57.57,0,0,0,.17.12c11.82,5.32,22.5-7.31,34.31-3.16a.76.76,0,0,0,.95-.73C317.55,136.46,308.07,130,298.45,131.05Z" transform="translate(-253.59 -38)"/><path class="cls-1" d="M283.27,149.18a.53.53,0,0,0-.12,0c-2.95-9.52,8.37-16.26,16.52-16.71s15.77,4.9,16.55,13.11C304.87,142.46,294.37,154.17,283.27,149.18Z" transform="translate(-253.59 -38)"/><path class="cls-1" d="M304.46,159.29a1.33,1.33,0,0,0-.43-.68c-1.21-1-2,.9-1.51,1.86a1.2,1.2,0,0,0,1,.78C304.45,161.24,304.72,160.12,304.46,159.29Z" transform="translate(-253.59 -38)"/><path class="cls-1" d="M312.68,155.8a1.34,1.34,0,0,0-.42-.68c-1.22-1-2,.9-1.52,1.86a1.2,1.2,0,0,0,1,.78C312.67,157.75,312.94,156.62,312.68,155.8Z" transform="translate(-253.59 -38)"/><path class="cls-1" d="M311.55,159.59a.67.67,0,0,0-.64-.64,2.2,2.2,0,0,1-2-2.54c.08-.81-1.19-.8-1.26,0a3.4,3.4,0,0,0,2.63,3.7l.09,1.72c0,.81,1.31.82,1.27,0S311.59,160.33,311.55,159.59Z" transform="translate(-253.59 -38)"/><path class="cls-1" d="M310.29,163.23a.63.63,0,0,0-.86-.58l-2.62-.06a1.61,1.61,0,0,0-1.53.53c-.67,1,0,2.8.7,3.6a2.17,2.17,0,0,0,3.09.28C310.23,166.09,310.31,164.59,310.29,163.23Z" transform="translate(-253.59 -38)"/><rect class="cls-4" x="78.66" y="33.49" width="13.93" height="50.91"/><rect class="cls-4" x="54.81" y="46.56" width="13.93" height="37.84"/><rect class="cls-4" x="30.96" y="74.4" width="13.93" height="10"/><path class="cls-4" d="M344,50.69l-5.55.51a1,1,0,0,0-.56.23,1,1,0,0,0-.38,1.69l1.19,1.45-59.2,42.07c-1.09.78,0,2.59,1.05,1.81L340,56.18l1.31,1.62c.54.66,1.51.2,1.75-.46q1-2.67,1.93-5.33A1.05,1.05,0,0,0,344,50.69Z" transform="translate(-253.59 -38)"/><path class="cls-1" d="M506.62,391.54c-6-15.81-20.61-24.43-35.83-30.59-8-3.22-16.08-6.29-23.38-10.82a51.15,51.15,0,0,1-6.39-4.62c-5.23-4.47-10.14-10.44-12.72-16.77a27.85,27.85,0,0,0-6.49-9.79,33.31,33.31,0,0,0-21.6-9c-13.43-.53-26,7.12-33.93,17.21-9.75,12.35-13,28.39-13.45,43.64-.42,15.49,2.35,31.54,11.28,44.65,8.64,12.68,21.49,19.71,36.68,22.44,18.13,3.26,37.1,3.54,55.42,2,14.07-1.19,30.25-2.75,41.53-11.91C508.56,419.17,511.37,404.12,506.62,391.54Z" transform="translate(-253.59 -38)"/><path class="cls-2" d="M474.61,436.25c-16.38,3.21-33.6,3.76-50.25,2.9-15.64-.82-33.17-2.08-46.33-11.22-12.31-8.56-19.54-22.36-22.37-36.57a93.16,93.16,0,0,1,2.52-46.14c4.93-15,16.08-28.84,32.27-33A33.92,33.92,0,0,1,412,313.91c6.63,2.83,12.54,8.07,15,14.79a38.39,38.39,0,0,0,5.75,9.9,51.19,51.19,0,0,0,7.74,8.38c5.33,4.45,11.68,7.59,18.05,10.36,6.63,2.88,13.43,5.38,20,8.44A62.82,62.82,0,0,1,493,374.65c11,9.46,17.53,23.94,13.39,38.13S488.52,433.52,474.61,436.25Z" transform="translate(-253.59 -38)"/><path class="cls-3" d="M493,374.65a62.82,62.82,0,0,0-14.47-8.87c-6.54-3.06-13.34-5.56-20-8.44-6.37-2.77-12.72-5.91-18.05-10.36a51.19,51.19,0,0,1-7.74-8.38,38.39,38.39,0,0,1-5.75-9.9c-.26-.68-.55-1.33-.87-2a26,26,0,0,0-8.94-4.12,13.5,13.5,0,0,0-13.3,1.85c-5.29,3.83-7.5,10.16-8.8,16.19-2.94,13.65-2.45,27.91,5.09,40.11a47.51,47.51,0,0,0,31.73,21.49c7.72,1.43,15.35.7,23-1,5.06-1.12,10.08-2.51,15.16-3.44a.43.43,0,0,0,.12.05c13.15,2.39,18.38,17.61,9.39,27.23-8.28,8.87-22,9.18-33.4,9.46a232.79,232.79,0,0,1-39.27-2.7.59.59,0,0,0-.5-.3c-.95-.05-1.9-.11-2.84-.19q-6.66-1-13.3-2.23A79.68,79.68,0,0,1,370,420.89a48.29,48.29,0,0,0,8,7c13.16,9.14,30.69,10.4,46.33,11.22,16.65.86,33.87.31,50.25-2.9,13.91-2.73,27.59-9.2,31.76-23.47S503.94,384.11,493,374.65Z" transform="translate(-253.59 -38)"/><path class="cls-1" d="M492.94,302a4.18,4.18,0,0,0-.43-1.84,3.19,3.19,0,0,0-3.4-1.73,4.22,4.22,0,0,0-.88-1.66,2.62,2.62,0,0,0-2.8-.79c1.3-3.49,2.27-7.93-.74-8.81-1.74-.51-2.94,1.08-3.51,2.44-1.32,3.15-2.17,6.56-3.24,9.8a.49.49,0,0,0,0,.38,6.13,6.13,0,0,0-2.34,2.5,7.89,7.89,0,0,0,.36,7.24c-3.57,7.68-8.54,15.1-16.49,19s-18.45,3.09-23.95-4.44a.63.63,0,0,0-.27-.22.65.65,0,0,0-1.09,0c-4.37,6.82-6.81,15.28-3.17,22.94s12.06,10.1,20.08,9.8a35.06,35.06,0,0,0,33.62-30.74l1.7-7.62c.39-1.78.66-2.74,2.1-3.91a18,18,0,0,0,2.8-2.58l0,0a5.33,5.33,0,0,0,1.82-1.12C495.44,308.42,497.07,303.06,492.94,302Z" transform="translate(-253.59 -38)"/><path class="cls-2" d="M488.88,303a8.38,8.38,0,0,0,.45-3.35c2.72-.65,2.41,3.36,1.85,4.91a4.87,4.87,0,0,1-1.88,2.62,2.13,2.13,0,0,1-3.13-.66A6.24,6.24,0,0,0,488.88,303Z" transform="translate(-253.59 -38)"/><path class="cls-2" d="M488,299.18a6.49,6.49,0,0,1-.12,2.84,6.31,6.31,0,0,1-1,2.17c-.19.23-.38.46-.58.68-.75.84-1.61.8-2.57-.12a2.2,2.2,0,0,0,1.6-2,3.17,3.17,0,0,0-1.62-2.85h0c.24-.46.61-1.21,1-2.12a.49.49,0,0,0,.56-.18C486.86,295.58,487.84,298.48,488,299.18Z" transform="translate(-253.59 -38)"/><path class="cls-2" d="M480.79,294.74c.45-1.38,1-3.43,1.59-4.74s2.41-2.05,2.88.36a2.89,2.89,0,0,1-.05.65,11.6,11.6,0,0,1-.57,3.05,25,25,0,0,1-2,5.19s0,.05,0,.07a4.6,4.6,0,0,0-1.12-.28,5.38,5.38,0,0,0-2.16.15Z" transform="translate(-253.59 -38)"/><path class="cls-2" d="M432.76,347.42c-4.2-7.19-2-15.55,2.06-22.25,4.23,5.41,11.09,7.63,17.77,6.76l.93,23.07a.48.48,0,0,0,0,.18l-.43.06C445.56,356,436.82,354.38,432.76,347.42Z" transform="translate(-253.59 -38)"/><path class="cls-2" d="M488.54,312.75c-.6.47-1.84.84-2.3,1.38-1.94,2.29-1.88,7.89-2.46,10.69-1.67,8.05-4.25,15.22-10.36,21.09A34.23,34.23,0,0,1,454.76,355v0l-.93-23.27a22.08,22.08,0,0,0,3.37-.91c9.78-3.48,15.88-12.07,20-20.95a.6.6,0,0,0-.06-.61.52.52,0,0,0-.05-.34c-1.25-2.46-1.43-5.6.81-7.61a4.35,4.35,0,0,1,4-1c1,.27,3.84,2,1.08,3.41-.68.35-2.12-.18-2.79-.38a.61.61,0,0,0-.33,1.17,8.84,8.84,0,0,0,2.45.41,2.5,2.5,0,0,0,2.7,1.87,3,3,0,0,0,2.21,1.88,2.54,2.54,0,0,0,1.58,3,3,3,0,0,0,.75.2A11.4,11.4,0,0,1,488.54,312.75Z" transform="translate(-253.59 -38)"/><path class="cls-2" d="M493.45,308.24a6.07,6.07,0,0,1-1.84,2c-1.05.66-4.16.7-3.17-1.52h0a5.14,5.14,0,0,0,3.69-3.24,9.69,9.69,0,0,0,.7-2.23C494.83,304.05,494.42,306.65,493.45,308.24Z" transform="translate(-253.59 -38)"/><path class="cls-1" d="M452.22,381.65c-1.11-3.43-3-6.55-4.6-9.76a41.56,41.56,0,0,1-4.09-15.51c-.75-8.92-.1-18.35-4.19-26.64a21,21,0,0,0-6.45-7.68,32.49,32.49,0,0,0-14-5.44,12.38,12.38,0,0,0-4.62.18,15.07,15.07,0,0,0-7.93,4.77c-4.81,5.5-6.16,13.37-7,20.31-2,16,.55,34.19,9,48.29a22.15,22.15,0,0,0,16.61,11.14c7,1,15.61,1.1,21.8-2.68S454.35,388.22,452.22,381.65Z" transform="translate(-253.59 -38)"/><path class="cls-2" d="M450.82,392.66c-3.55,7-12.55,8-19.63,7.87-7.33-.11-14.35-1.51-19.22-7.27-4.46-5.27-7-12.31-8.86-18.79a80.1,80.1,0,0,1-3.21-21.24A69.7,69.7,0,0,1,403,330.32c1.92-5.8,7.23-13.4,14.39-12.79a26,26,0,0,1,6.44,1.57,51,51,0,0,1,5.81,2.25c11.45,5.74,11.83,19.69,12.39,30.56.33,6.4.94,12.75,3.62,18.68C448.64,377.27,454.67,385.11,450.82,392.66Z" transform="translate(-253.59 -38)"/><path class="cls-1" d="M528,413.15a28.12,28.12,0,0,0-25.4,3,.62.62,0,0,0-.15.91c-2.06,2.83-4.24,6.37-2.59,9.87,1.33,2.84,4.44,3.34,7.34,3.26a111.08,111.08,0,0,0,15.22-1.69c4.17-.69,9.7-1.08,13.42-3.21C543.13,421.06,531.57,414.52,528,413.15Z" transform="translate(-253.59 -38)"/><path class="cls-2" d="M536,423.59c-.5.81-2.31,1.21-3.09,1.44a113.64,113.64,0,0,1-20.16,3.46c-2.78.27-6.18.95-8.92.19-6.22-1.74-2.36-8.37-.07-11.45a.46.46,0,0,0,.07-.49,26.81,26.81,0,0,1,18-3.9,26.49,26.49,0,0,1,9.2,3.13,14.32,14.32,0,0,1,3.86,2.7C535.69,419.52,536.64,422.61,536,423.59Z" transform="translate(-253.59 -38)"/><path class="cls-1" d="M500,364.72c-18.54-9-39.35-1.26-57,5.81a.64.64,0,0,0,0,1.21c-1.3,5,2,9.78,6.7,11.86,7.13,3.15,15.07.68,22.54,1.36,17.34,1.56,26.5,18.07,31.7,32.32a.6.6,0,0,0,.39,1.07A35,35,0,0,0,522,413.44l0,0a.47.47,0,0,0,.15-.13l0,0a.59.59,0,0,0,.06-.14.43.43,0,0,0,0-.11s0,0,0-.06C522,395,518.26,373.62,500,364.72Z" transform="translate(-253.59 -38)"/><path class="cls-4" d="M505.15,417.1c-4.4-12.12-10.76-24.7-23.19-30.65-6.34-3-12.63-2.87-19.52-2.52-3.84.19-7.86.25-11.5-1.12-4.64-1.74-8.23-6.24-6.66-11.2a.58.58,0,0,0,0-.32c16.82-6.7,36.42-13.94,54.12-6,18.49,8.34,22.29,29.42,22.65,47.24A33.64,33.64,0,0,1,505.15,417.1Z" transform="translate(-253.59 -38)"/><path class="cls-1" d="M515.49,420a28.14,28.14,0,0,0-25.41,3,.62.62,0,0,0-.15.91c-2.06,2.83-4.23,6.37-2.59,9.87,1.33,2.84,4.45,3.34,7.34,3.26a111.1,111.1,0,0,0,15.22-1.7c4.17-.68,9.7-1.08,13.42-3.2C530.64,427.93,519.08,421.39,515.49,420Z" transform="translate(-253.59 -38)"/><path class="cls-2" d="M523.55,430.46c-.5.81-2.31,1.21-3.09,1.44a114.55,114.55,0,0,1-20.16,3.46c-2.77.27-6.18.95-8.92.19-6.22-1.74-2.36-8.37-.07-11.45a.5.5,0,0,0,.08-.5,26.41,26.41,0,0,1,27.23-.76,14.27,14.27,0,0,1,3.87,2.69C523.21,426.39,524.15,429.48,523.55,430.46Z" transform="translate(-253.59 -38)"/><path class="cls-1" d="M512.5,418.44c.28-2.3-.84-5.15-1.11-7.32-.43-3.43-.88-6.85-1.51-10.25a57.24,57.24,0,0,0-6.72-19.24,34.56,34.56,0,0,0-12-12.18c-13.76-8.32-29.6-4.64-43.83,1.12-.52-.69-2-3.41-3-3.42a1.21,1.21,0,0,0-.52.13c-6.33,2.6-12.34,5.84-18.77,8.28-3.67,1.4-7.39,2.67-11.15,3.84q-2.82.87-5.67,1.65a28,28,0,0,0-2.86.76c-1.22.49-.6,2-.31,2.93,2.34,7.14,6.9,13.14,13.92,16.48,8.44,4,18.24,3.92,27.23,1.93a102.64,102.64,0,0,0,15.11-4.85c4.87-1.9,11-4.74,16-1.55,4.44,2.85,6.23,9.56,7.63,14.2a67.39,67.39,0,0,1,2.16,9.61c.26,1.71.46,3.43.59,5.15s-.15,2.87,1.94,3a24.94,24.94,0,0,0,7.75-1.2,35.32,35.32,0,0,0,8-3.21,34.41,34.41,0,0,0,3.72-2.37c1-.7,2.83-1.45,3.21-2.67A5.56,5.56,0,0,0,512.5,418.44Z" transform="translate(-253.59 -38)"/><path class="cls-4" d="M481.83,400c-5.21-8.66-14-5.45-21.86-2.43-10.5,4-22,7.35-33.34,4.93-10.11-2.15-19-9.27-20.46-19.6a188.7,188.7,0,0,0,38-14.43l2,2.62c-3.68,1.53-7.25,3.18-10.64,4.78-.72.34-.09,1.39.64,1.05,16.3-7.7,37.06-16.86,54.38-6.38,16.56,10,18.88,30.84,20.42,47.94a.6.6,0,0,0,.11.3,33.82,33.82,0,0,1-22,8.7C488.57,418.23,486.67,408,481.83,400Z" transform="translate(-253.59 -38)"/><path class="cls-1" d="M496.62,366.12a3.66,3.66,0,0,0,1.84-.26,3.35,3.35,0,0,0,1.08-2c.17-.84.21-2.18-.86-2.32-2-.27-4.27-.14-6.34-.2-4.46-.13-8.92-.21-13.38-.31l-5.08-.12-11.88-.3-6-.16-2.94-.08c-.63,0-2-.3-2.55.07a2,2,0,0,0-.61,2.45,4,4,0,0,0,1.52,2.18c1,.62,2.31.24,3.43.26l4.58.08,9.17.17,18.33.33,5.14.1,3.41.06C495.82,366.07,496.22,366.1,496.62,366.12Z" transform="translate(-253.59 -38)"/><path class="cls-2" d="M473.06,364.44l-11.33-.22-5.73-.1-2.8,0a1.91,1.91,0,0,1-1.86-.89A3.08,3.08,0,0,1,451,362c.05-.88,3.64-.35,4.26-.33l6.12.16,12.23.32c4.18.1,8.36.22,12.53.33l6.27.16,3.2.08c.6,0,2.92-.44,2.76.58-.08.5-.14,1.24-.64,1.53a3.79,3.79,0,0,1-2.14.09c-.94-.08-1.88-.07-2.82-.09l-6.66-.14Z" transform="translate(-253.59 -38)"/><path class="cls-1" d="M510.81,328a2.09,2.09,0,0,0-.7-.15c-8.48-.84-16.94-2-25.38-3.12-1.12-.15-3-.8-4-.06-.79.57-.69,1.74-.84,2.58-.24,1.37-.46,2.74-.7,4.11-.46,2.74-.92,5.49-1.39,8.23-.91,5.41-1.83,10.82-2.72,16.23-.42,2.49-1.05,5.37,1.54,6.95,2.84,1.72,7.69,1,10.83,1.11,4,.14,8.74,1,12.72.11,3.08-.65,4.61-2.86,5.36-5.7,1.35-5.07,2.39-10.23,3.33-15.39.47-2.54.92-5.09,1.37-7.64.23-1.27.45-2.54.69-3.82.15-.85,1.1-2.83,0-3.41Z" transform="translate(-253.59 -38)"/><path class="cls-2" d="M501.65,362.05c-3.07,1.94-8.38.85-11.88.73s-7.74.32-11.2-.53c-4.68-1.16-1.69-9.82-1.14-13.13.64-3.79,1.33-7.57,2-11.35.53-3,.75-6.14,1.11-9.2.13-1.18.4-2.53,1.72-3a4.92,4.92,0,0,1,2.6.15,111,111,0,0,0,11.35,1.73c3,.38,6,.57,9,.95,1.44.19,3.76-.4,4.65,1.16s-.34,3.58-.68,5c-1.32,5.67-2.46,11.37-3.62,17.08C504.91,355,504.79,360.06,501.65,362.05Z" transform="translate(-253.59 -38)"/><path class="cls-3" d="M509.87,329.6c-.89-1.56-3.21-1-4.65-1.16-3-.38-6-.57-9-.95a111,111,0,0,1-11.35-1.73c-.34-.08-.69-.16-1-.21a202.92,202.92,0,0,0-5,31.37c-.21,2.69.17,4.48,1.82,5.67,3,.35,6.28.1,9.16.19,3.5.12,8.81,1.21,11.88-.73s3.26-7,3.92-10.32c1.16-5.71,2.3-11.41,3.62-17.08C509.53,333.18,510.71,331.08,509.87,329.6Z" transform="translate(-253.59 -38)"/><path class="cls-1" d="M469.9,347.87c-.77-4.07-6.3-5.76-10-5.66a19.28,19.28,0,0,0-6.95,1.61c-3.91,1.7-6.77,4.85-9.56,7.88-2.58,2.81-5.52,5.52-9.65,5.47-6.18-.08-7-6.34-8.11-10.92-1.22-4.83-2.19-9.8-3.75-14.53-1-3.05-2.48-6-5.16-8-5.71-4.17-12.24-.39-14.82,5.26-3.35,7.36-2.71,16.27.19,23.66,3,11.61,7.95,26.87,22.16,29,14.56,2.2,24.23-11.16,31-21.51,0,0,0,0,0-.06a1.92,1.92,0,0,0,.31-.18.58.58,0,0,0,.41.46,3.39,3.39,0,0,0,4.36-2.7c0-.05,0-.09,0-.14h.08c2.24-.31,2.77-1.86,2.49-3.66a2.79,2.79,0,0,0,1.72,1.13,1.85,1.85,0,0,0,2.13-1.48c.3-1.29-.54-2.77-1.17-3.86-.09-.15-.19-.29-.29-.43.92.56,1.8,1.23,3,1A2,2,0,0,0,469.9,347.87Z" transform="translate(-253.59 -38)"/><path class="cls-2" d="M401.66,346.92a31.18,31.18,0,0,1-.68-7.46c.15-4.65,1.15-10.39,4.71-13.81,4.4-4.22,10.34-2.4,13.26,2.41,2.37,3.89,3.06,8.85,4.15,13.19.77,3.06,1.29,6.41,2.26,9.51a100.48,100.48,0,0,1-19.47,10.39h0A99.76,99.76,0,0,1,401.66,346.92Z" transform="translate(-253.59 -38)"/><path class="cls-2" d="M468.66,348.62c-.4.78-1.4.41-2,.12a9.63,9.63,0,0,0-2.49-1.28.61.61,0,0,0-.3,0,14.79,14.79,0,0,0-1.8-1.64c-.62-.48-1.51.37-.88.86a11.72,11.72,0,0,1,4.12,5.36c.2.51.57,1.43-.09,1.59-.07,0-.57.28-1.32-.36a9.7,9.7,0,0,1-1.27-1.44c-.39-.52-.74-1.06-1.1-1.6a6.49,6.49,0,0,1-.36-.55,2.48,2.48,0,0,0-.26-.42,7.7,7.7,0,0,0-1.21-1.46c-.58-.54-1.47.32-.88.86,1.27,1.19,5,6.95,1.51,7.71-.27-1.92-1.84-3.49-3.36-4.7-.62-.5-1.51.36-.88.86a8.23,8.23,0,0,1,2.69,3c.74,1.71-.06,4.43-2.44,3.71a3.49,3.49,0,0,0,.55-1c.26-.74-.95-1.06-1.21-.32S454.46,359,454,359.8c-6.25,9.72-16.41,24-30.3,20.58-7.35-1.49-12.22-6.91-15.28-13.28-.74-1.55-1.44-3.16-2.1-4.8A102,102,0,0,0,425.77,352c.21.58.43,1.15.68,1.7a7.62,7.62,0,0,0,5.5,4.54c7.53,1.57,11.7-5.6,16.36-9.86,5-4.59,13.6-7.37,19.14-2C467.94,346.78,469,347.87,468.66,348.62Z" transform="translate(-253.59 -38)"/><path class="cls-1" d="M450.25,307.69c-1.65-2-5.72-2.19-7.63-.65a4.66,4.66,0,0,0-1,6.36,5.16,5.16,0,0,0,6.72,1.29c2-1.16,3.31-4.08,2.38-6.25A3.35,3.35,0,0,0,450.25,307.69Z" transform="translate(-253.59 -38)"/><path class="cls-2" d="M448.51,313a4,4,0,0,1-5.5.11,3.4,3.4,0,0,1,.16-4.93,3.91,3.91,0,0,1,3-1C449.39,307.38,451,310.59,448.51,313Z" transform="translate(-253.59 -38)"/><path class="cls-1" d="M453.32,289.66a16.19,16.19,0,0,0-14-13.38c-7.13-1.07-14,2.29-18.27,7.76-5.9,7.54-5.91,17.54-2.59,26.12-.45,3.66-3.52,6.92-2,10.71,1.1,2.83,3.92,4.43,6.64,5.54,2.31.94,6.15,2.68,8.08.13.75-1,.75-2.37.89-3.52.2-1.75.4-3.5.59-5.25,5.59,1.81,11.63-1.26,15-5.91C452,305.88,454.5,297,453.32,289.66Z" transform="translate(-253.59 -38)"/><path class="cls-2" d="M450.72,302.5c-1.69,5.42-5.29,11.87-11,14.11a9.38,9.38,0,0,1-3.59.67,11.25,11.25,0,0,1-2.44-.43c-.89-.24-1.72-.71-2.08.42-.68,2.21-.1,4.59-1,6.81-1.75,4.43-7.08,1.6-9.81-.1-3.05-1.9-4.19-4.74-3-8.06.62-1.74,1.33-3.42,1.84-5.2a2.09,2.09,0,0,0,.1-.6,12.9,12.9,0,0,0-.87-2.46c-.29-.91-.53-1.83-.73-2.76a28.79,28.79,0,0,1-.69-5.62,23.31,23.31,0,0,1,2.28-10.89,20.76,20.76,0,0,1,2.72-4.17c5.42-6.45,14.7-9.08,22.39-4.79C453.44,284.19,453.26,294.41,450.72,302.5Z" transform="translate(-253.59 -38)"/><path class="cls-3" d="M444.89,279.43c-7.69-4.29-17-1.66-22.39,4.79a20.76,20.76,0,0,0-2.72,4.17,23.31,23.31,0,0,0-2.28,10.89q0,.63.06,1.26a29.36,29.36,0,0,0,5.18,1.39.6.6,0,0,0,.92.48,45.63,45.63,0,0,0,14.14-13.86c4.76,2.32,9.49,4.83,14.34,7C452.7,289.22,451.1,282.89,444.89,279.43Z" transform="translate(-253.59 -38)"/><path class="cls-3" d="M433.12,316.67l-3.63-1.6c-1-.45-2.93-1.77-4.12-1.3-2,.81-.58,4.66.1,5.91a8.6,8.6,0,0,0,5.24,4.26c.8-2.18.26-4.51.93-6.67C431.91,316.4,432.47,316.48,433.12,316.67Z" transform="translate(-253.59 -38)"/><path class="cls-1" d="M456.82,286.63l2.25-2.83c.89-1.12,2.68-2.65,2.57-4.22-.16-2.31-3.19-2-5.34-1.43,1.26-1.54,3-3.8,1.21-4.95-1-.63-2.45-.35-3.52-.22a20.58,20.58,0,0,0-3.12.65c1.23-2,2.83-4.86.67-5.61-1.27-.43-3.09.54-4.2,1a31.94,31.94,0,0,0-3.84,1.8c1-2,1.8-4.47-1-4.25-1.81.14-3.91,1.32-5.53,2.08a40.54,40.54,0,0,0-5.62,3.3l-.45-3.31c-.06-.45-.68-.89-1.06-.43-4.88,5.78-11,11-13.72,18.21a19.34,19.34,0,0,0,3,18.86.69.69,0,0,0,.94.13.51.51,0,0,0,.22-.09,39,39,0,0,0,15.32-20,49.07,49.07,0,0,1,17.26,7.55l.13.07a.55.55,0,0,0,.7.06l5.05-3.09c.82-.5,2.72-1.17,2.86-2.29C461.84,285.76,458.81,286.21,456.82,286.63Z" transform="translate(-253.59 -38)"/><path class="cls-1" d="M458.61,288.56l-5.23,3.2a49.77,49.77,0,0,0-17.81-7.69.74.74,0,0,0-.3,0,.59.59,0,0,0-.69.41,37.65,37.65,0,0,1-14.76,19.63,18.3,18.3,0,0,1-1.78-19c2.78-5.75,7.61-10.22,11.81-15,.13.94.25,1.88.38,2.83-.13.49.36,1.07.88.7a39.19,39.19,0,0,1,6.5-3.91,14.41,14.41,0,0,1,3.77-1.55l.8-.26a1.74,1.74,0,0,1,.25,2.18,13.28,13.28,0,0,1-1,2,.63.63,0,0,0,.95.77s.06,0,.08,0a33.64,33.64,0,0,1,6.46-3.09c.27-.09,1-.47,1.27-.41,1.6.33.7,1.44.38,2-.57,1-1.13,2.08-1.7,3.11a.31.31,0,0,0-.05.1h0a.62.62,0,0,0,1,.69,19.41,19.41,0,0,1,5.64-1.16c.64,0,.67-.12,1,.51s.11.82-.32,1.44c-.61.87-1.24,1.74-1.86,2.61a.52.52,0,0,0-.08.5c-.1.42.2.93.72.73a8,8,0,0,1,3.89-.84c2.61.49.31,2.66-.39,3.55l-4.62,5.82c-.49.62.6,1.22,1.08.61l.7-.87h0l3.23-.49C461.15,287.31,459.52,288,458.61,288.56Z" transform="translate(-253.59 -38)"/><path class="cls-1" d="M422.19,301.45c-1.62-2-5.72-2.19-7.63-.64a4.67,4.67,0,0,0-1,6.36,4.81,4.81,0,0,0,6.36,1.64c2-1.16,3-4.27,2.74-6.6A2.35,2.35,0,0,0,422.19,301.45Z" transform="translate(-253.59 -38)"/><path class="cls-2" d="M423,307.46c-1.52,1.46-6.47.94-8-.57a3.6,3.6,0,0,1,3.14-5.95C422.29,301.89,425.47,305,423,307.46Z" transform="translate(-253.59 -38)"/><path class="cls-1" d="M439.09,300.87a1.78,1.78,0,0,0-1.67,2.2c.52,1.57,2.31.57,2.58-.61S439.75,300.84,439.09,300.87Z" transform="translate(-253.59 -38)"/><path class="cls-1" d="M447.05,303.1a1.78,1.78,0,0,0-1.67,2.2c.52,1.56,2.31.57,2.58-.61S447.71,303.07,447.05,303.1Z" transform="translate(-253.59 -38)"/><path class="cls-1" d="M444.06,303.16c-.27,1.12-.86,3.86-2.27,4.06-.8.12-.46,1.29.33,1.18,2-.29,2.76-3.32,3.15-4.91C445.46,302.73,444.25,302.4,444.06,303.16Z" transform="translate(-253.59 -38)"/><path class="cls-1" d="M440.11,308.74a6.08,6.08,0,0,0-1.55-1.14c-.88-.52-2-1.43-3-.7-1.39,1.05-1.63,3.76,0,4.77a2.81,2.81,0,0,0,3.18-.24C439.36,311,440.79,309.6,440.11,308.74Z" transform="translate(-253.59 -38)"/><path class="cls-1" d="M438.63,411.32a50.35,50.35,0,0,0-37.48-25.79.67.67,0,0,0-.64.27.66.66,0,0,0-.85.37c-3.65,9.84,1.66,19.95,10.41,25.23a36.29,36.29,0,0,0,16,4.78c4.18.32,10.7.89,12.2-4A.6.6,0,0,0,438.63,411.32Z" transform="translate(-253.59 -38)"/><path class="cls-2" d="M439.25,422.89c-4.13-.87-32.27-5.46-35.71-7.87-7.36-5.16-5.61-35.1-2.74-28.32h0c15.44,2.1,30.13,12.12,37.48,25.48C438.25,412.24,443.34,423.76,439.25,422.89Z" transform="translate(-253.59 -38)"/><path class="cls-1" d="M469.83,398.39a51.6,51.6,0,0,0-45.7,4.3.64.64,0,0,0-.3.62.63.63,0,0,0-.39.82c3.84,9.77,14.66,14,24.82,12.48A36.05,36.05,0,0,0,463.61,410c3.38-2.41,8.7-6.13,6.54-10.78A.59.59,0,0,0,469.83,398.39Z" transform="translate(-253.59 -38)"/><path class="cls-2" d="M478.08,406.75c-3.72,2-28.1,16.39-32.33,16.75-9,.77-27.82-23-21.1-19.7h0c13.1-8.23,30.94-10,45.48-4.54C470.16,399.32,481.75,404.81,478.08,406.75Z" transform="translate(-253.59 -38)"/><path class="cls-1" d="M485.79,243.79a11.59,11.59,0,0,0-13.14,3.46c-3.61,4.76-2.1,11,.25,16a6.39,6.39,0,0,1,0,2.95,1.74,1.74,0,0,0-1.84,1,1.47,1.47,0,0,1-.78,1.93,1.44,1.44,0,0,0,0,1.2,1.69,1.69,0,0,0-.53,1.08,1.58,1.58,0,0,0,.53,1.27.67.67,0,0,0,.24.35c.16.12.34.22.51.33a3.61,3.61,0,0,0,4.85,4.16c.85-.33,2.26-1.38,2-2.44l.38,0a2,2,0,0,0,2.32-2,1.54,1.54,0,0,0,.47-2.1,2.08,2.08,0,0,0,.2-2.65s0,0-.05-.05a6.44,6.44,0,0,1,2-2.07c4.82-1.33,8.84-5.15,9.56-10.11A11.68,11.68,0,0,0,485.79,243.79Z" transform="translate(-253.59 -38)"/><path class="cls-3" d="M480,270.23a.54.54,0,0,0-.26.68.49.49,0,0,0,.16.51c.32.25.22.57-.18.63a.61.61,0,0,0-.44.75.46.46,0,0,0,.09.17.72.72,0,0,1-.62.86.74.74,0,0,0-.34,0,9.57,9.57,0,0,1-6.66-1.51.62.62,0,0,0-.38-.41c-.43-.15-.34-.55-.07-.75a.66.66,0,0,0,.65-.37s0,0,0-.06a.37.37,0,0,0,0-.14v-.06a.47.47,0,0,0,0-.16.65.65,0,0,0-.48-.49c-.13-.24.12-.53.49-.39a.63.63,0,0,0,.71-.3l.1-.11a.61.61,0,0,0-.22-.84c-.53-.23-.35-.84.13-.82a.72.72,0,0,0,.13.19,7,7,0,0,0,7.51,1.55A.87.87,0,0,1,480,270.23Z" transform="translate(-253.59 -38)"/><path class="cls-2" d="M491.51,255.94a10.52,10.52,0,0,1-3,5.78,12.32,12.32,0,0,1-2.64,2c-1.85,1-3.8,1.14-5.09,3-.23.34-.49,1.13-.92,1.29a5.69,5.69,0,0,1-5.86-1c-.3-.26.28-1.57.32-1.92.27-2.54-1.45-4.72-2.06-7.08-.8-3.11-.83-6.52.93-9.34a10.17,10.17,0,0,1,12.12-3.71A10.39,10.39,0,0,1,491.51,255.94Z" transform="translate(-253.59 -38)"/><path class="cls-1" d="M482.88,257.86a2.28,2.28,0,0,0-2.22-.84,3.55,3.55,0,0,0-2,1.2c-.5-1.05-1.52-2-2.7-1.09-1.59,1.17-.19,3.51.34,4.86a.48.48,0,0,0,.09.14l-1.05,5.94c-.13.77,1.07,1.1,1.21.33l1.12-6.39a.62.62,0,0,0-.29-.65,16.76,16.76,0,0,1-.8-2.1c-.1-.37-.22-1.71.69-1.06.35.25.4.84.47,1.22a.52.52,0,0,0,.64.42.51.51,0,0,0,.63-.16c.52-.62,1.65-2,2.64-1.33.55.39.18,1-.29,1.33a4,4,0,0,1-1.8.39.64.64,0,0,0-.6.66l-1.62,7.4c-.17.77,1,1.09,1.21.33.53-2.41,1.05-4.81,1.58-7.22a3.83,3.83,0,0,0,2.34-.87A2,2,0,0,0,482.88,257.86Z" transform="translate(-253.59 -38)"/><path class="cls-1" d="M465.83,243.68l-3.62-4.23c-.51-.6-1.39.26-.88.86l3.61,4.23C465.46,245.14,466.34,244.28,465.83,243.68Z" transform="translate(-253.59 -38)"/><path class="cls-1" d="M481.52,231.23c-.13,1.85-.25,3.69-.38,5.53-.05.79,1.2.78,1.25,0,.13-1.84.26-3.68.38-5.53C482.83,230.45,481.57,230.45,481.52,231.23Z" transform="translate(-253.59 -38)"/><path class="cls-1" d="M503.94,241l-5.31,4.41c-.62.51.27,1.37.88.87l5.31-4.42C505.44,241.3,504.55,240.44,503.94,241Z" transform="translate(-253.59 -38)"/></svg>