<?xml version="1.0" standalone="no"?>
<!DOCTYPE svg PUBLIC "-//W3C//DTD SVG 20010904//EN"
 "http://www.w3.org/TR/2001/REC-SVG-20010904/DTD/svg10.dtd">
<svg version="1.0" xmlns="http://www.w3.org/2000/svg"
 width="778.000000pt" height="234.000000pt" viewBox="0 0 778.000000 234.000000"
 preserveAspectRatio="xMidYMid meet">

<g transform="translate(0.000000,234.000000) scale(0.100000,-0.100000)"
fill="#000000" stroke="none">
<path d="M6415 2324 c-425 -65 -674 -314 -675 -674 0 -224 140 -434 367 -549
80 -40 344 -131 526 -181 228 -63 301 -98 335 -160 19 -37 23 -55 19 -102 -13
-147 -121 -204 -372 -196 -116 4 -137 7 -191 32 -109 49 -170 133 -198 269
l-13 62 -258 3 -258 2 6 -77 c13 -160 75 -328 157 -427 91 -109 234 -199 379
-238 63 -17 115 -22 297 -25 258 -6 369 7 526 61 127 43 197 85 283 171 118
116 167 245 168 435 1 177 -47 302 -154 408 -109 108 -210 155 -579 271 -312
97 -357 114 -417 154 -175 118 -109 309 120 347 150 26 324 -26 394 -118 20
-27 37 -64 44 -101 l12 -58 171 -6 c94 -4 209 -7 255 -7 l84 0 -7 72 c-28 303
-207 515 -508 602 -158 46 -342 56 -513 30z"/>
<path d="M0 1170 l0 -1080 280 0 280 0 -2 1078 -3 1077 -277 3 -278 2 0 -1080z"/>
<path d="M797 2243 c-4 -3 -7 -489 -7 -1080 l0 -1073 835 0 835 0 0 220 0 220
-565 0 -565 0 2 222 3 223 563 3 562 2 0 210 0 210 -565 0 -565 0 0 205 0 205
565 0 565 0 -2 218 -3 217 -826 3 c-454 1 -829 -1 -832 -5z"/>
<path d="M2677 2243 c-4 -3 -7 -489 -7 -1080 l0 -1073 780 0 780 0 0 230 0
230 -505 0 -505 0 0 850 0 850 -268 0 c-148 0 -272 -3 -275 -7z"/>
<path d="M3837 2243 c-4 -3 -7 -102 -7 -220 l0 -213 315 0 315 0 0 -860 0
-860 270 0 270 0 0 860 0 860 310 0 310 0 0 220 0 220 -888 0 c-489 0 -892 -3
-895 -7z"/>
<path d="M7320 2230 c0 -16 7 -20 35 -20 l35 0 0 -105 0 -105 25 0 25 0 0 105
0 105 35 0 c28 0 35 4 35 20 0 19 -7 20 -95 20 -88 0 -95 -1 -95 -20z"/>
<path d="M7540 2125 l0 -125 25 0 c25 0 25 1 26 88 l1 87 21 -87 c19 -83 21
-88 47 -88 25 0 27 5 47 88 l20 87 2 -87 c1 -87 1 -88 26 -88 l25 0 0 125 0
125 -39 0 -39 0 -18 -75 c-10 -41 -21 -75 -24 -75 -3 0 -14 34 -24 75 l-18 75
-39 0 -39 0 0 -125z"/>
</g>
</svg>
